<svg width="24" height="24" viewBox="0 0 24 24" fill="none" xmlns="http://www.w3.org/2000/svg">
<path opacity="0.98" fill-rule="evenodd" clip-rule="evenodd" d="M8.33652 6.00031C8.46455 5.99817 8.51446 6.00673 8.57089 6.04096C8.61863 6.07092 8.64684 6.10943 8.65986 6.16506C8.67071 6.20786 8.69675 6.4903 8.71411 6.78986C8.73364 7.08941 8.75968 7.48098 8.7727 7.65643C8.78355 7.83403 8.8096 8.10149 8.82696 8.25555C8.84649 8.40747 8.8747 8.59576 8.89423 8.67279C8.91159 8.74982 8.95065 8.8889 8.98103 8.98304C9.01141 9.07719 9.07 9.22055 9.11341 9.304C9.15464 9.38531 9.22842 9.51155 9.27616 9.58216C9.3239 9.65277 9.42807 9.77687 9.50619 9.85818C9.58431 9.93735 9.73622 10.0657 9.84472 10.1428C9.95106 10.2176 10.1572 10.3375 10.3004 10.4059C10.4437 10.4744 10.6542 10.56 10.767 10.5964C10.8798 10.6349 11.0513 10.682 11.1468 10.7055C11.2423 10.7269 11.4332 10.7633 11.5699 10.7825C11.7066 10.8039 11.9258 10.821 12.0582 10.821C12.1884 10.821 12.3946 10.8039 12.5139 10.7825C12.6333 10.7611 12.809 10.7269 12.9045 10.7034C13 10.6798 13.1714 10.6306 13.2843 10.5942C13.3971 10.5579 13.5968 10.4723 13.7292 10.4081C13.8594 10.3418 14.0351 10.2412 14.1198 10.1834C14.2022 10.1235 14.3433 10.008 14.4323 9.92665C14.5191 9.8432 14.6493 9.687 14.7187 9.58216C14.7903 9.47517 14.8793 9.31256 14.9162 9.21841C14.9509 9.12426 15.0052 8.95951 15.0312 8.85466C15.0594 8.74768 15.0963 8.54655 15.1158 8.40533C15.1332 8.26411 15.1636 7.92175 15.1831 7.64573C15.2005 7.36971 15.2308 6.93108 15.2504 6.67217C15.2677 6.41327 15.2873 6.18218 15.2938 6.15864C15.2981 6.13511 15.3285 6.09231 15.3589 6.06236C15.4131 6.01101 15.4262 6.00887 15.667 6.01101C15.8146 6.01315 16.0815 6.03882 16.3007 6.07092C16.509 6.10087 16.7803 6.15009 16.904 6.18004C17.0255 6.21 17.2208 6.26777 17.338 6.31056C17.453 6.35336 17.6353 6.43253 17.7438 6.48602C17.8501 6.53737 18.0107 6.63152 18.0997 6.69143C18.1887 6.75134 18.3536 6.89684 18.4686 7.01452C18.5836 7.13221 18.8484 7.42535 19.0567 7.66713C19.2672 7.90892 19.6187 8.3176 19.8401 8.5765C20.0614 8.83541 20.3956 9.22911 20.5866 9.45378C20.7754 9.67631 20.949 9.89242 20.9707 9.93093C20.9967 9.978 21.0054 10.0208 20.9967 10.07C20.9859 10.1214 20.9034 10.2176 20.6647 10.4573C20.4911 10.6327 20.0745 11.0372 19.7403 11.356C19.4061 11.6748 19.0198 12.0364 18.8831 12.1584C18.7464 12.2803 18.5966 12.4023 18.5532 12.4301C18.5077 12.4579 18.4469 12.4814 18.4165 12.4814C18.3861 12.4814 18.3297 12.4643 18.2928 12.4451C18.2538 12.4258 18.1171 12.3338 17.989 12.2418C17.8588 12.1498 17.7503 12.077 17.7438 12.0813C17.7395 12.0835 17.6917 12.2825 17.6375 12.5242C17.5854 12.766 17.5116 13.1255 17.4747 13.3266C17.4378 13.5256 17.3879 13.8102 17.364 13.9578C17.3402 14.1055 17.3011 14.3708 17.2794 14.5463C17.2555 14.7238 17.2165 15.0362 17.1926 15.2417C17.1666 15.4471 17.1383 15.7209 17.1253 15.8515C17.1123 15.9799 17.0884 16.2559 17.0711 16.4613C17.0537 16.6667 17.0342 17.0048 17.0277 17.2102C17.019 17.4156 17.0038 17.6124 16.993 17.6488C16.9843 17.683 16.9517 17.7344 16.9257 17.7601C16.8975 17.7858 16.828 17.8179 16.7673 17.8307C16.7087 17.8435 16.585 17.8628 16.496 17.8735C16.407 17.8842 16.1401 17.9077 15.9057 17.927C15.6692 17.9441 15.0008 17.9676 14.4192 17.9805C13.8355 17.9912 12.7982 18.0019 12.1125 17.9997C11.4267 17.9997 10.333 17.9912 9.68197 17.9805C9.03094 17.9698 8.35171 17.9505 8.17376 17.9377C7.99582 17.9248 7.69201 17.8949 7.50104 17.8713C7.30356 17.8478 7.13213 17.8157 7.10609 17.7986C7.07787 17.7815 7.04315 17.7408 7.02579 17.7087C7.00626 17.6681 6.9889 17.4862 6.97154 17.1567C6.95635 16.8849 6.92163 16.3907 6.89125 16.0547C6.86087 15.7188 6.80878 15.2288 6.77189 14.9635C6.73717 14.6982 6.66773 14.2553 6.61999 13.9792C6.57225 13.7032 6.48978 13.2796 6.4377 13.0378C6.38562 12.796 6.32269 12.5114 6.29665 12.4066C6.27278 12.2996 6.24239 12.1819 6.20984 12.0749L6.0319 12.2118C5.93207 12.2867 5.80404 12.3787 5.74328 12.4151C5.68251 12.4515 5.60656 12.4814 5.56967 12.4814C5.53278 12.4814 5.47853 12.4643 5.44598 12.4429C5.4156 12.4237 5.20944 12.2418 4.99026 12.0407C4.77325 11.8374 4.23941 11.3282 3.80757 10.9066C3.21948 10.3332 3.01766 10.1214 3.00681 10.0743C2.99813 10.0379 2.99813 9.98014 3.00464 9.94591C3.01332 9.90311 3.17825 9.69128 3.47989 9.33395C3.73379 9.0344 4.07449 8.63427 4.23507 8.44812C4.39566 8.26197 4.71466 7.89608 4.94252 7.63718C5.17038 7.37613 5.459 7.06802 5.58269 6.95033C5.70639 6.83051 5.87131 6.69357 5.94943 6.64436C6.02756 6.593 6.17729 6.51169 6.2858 6.46034C6.39213 6.40899 6.57442 6.33624 6.68726 6.29986C6.8001 6.26135 6.98673 6.20786 7.09957 6.18004C7.21242 6.15223 7.39905 6.11371 7.51189 6.09445C7.62473 6.0752 7.82004 6.04524 7.9459 6.03026C8.07177 6.01529 8.24755 6.00245 8.33652 6.00031ZM7.67682 6.66147C7.66814 6.66789 7.67247 6.79627 7.68333 6.95033C7.69635 7.10225 7.71154 7.41037 7.72022 7.63504C7.7289 7.86826 7.72239 8.22773 7.70937 8.48022C7.69418 8.722 7.66596 9.06435 7.64209 9.23981C7.61822 9.4174 7.57916 9.66561 7.55529 9.79613C7.52925 9.92451 7.49019 10.1085 7.46632 10.2027C7.44245 10.2968 7.39254 10.4659 7.35564 10.5771C7.32092 10.6884 7.27752 10.8061 7.26016 10.8403C7.2428 10.8724 7.22978 10.9066 7.22978 10.9195C7.22978 10.9302 7.34479 11.0265 7.48585 11.1313C7.62473 11.2361 7.8374 11.4116 7.95458 11.5229C8.07394 11.632 8.24104 11.8032 8.32567 11.9037C8.41247 12.0043 8.54051 12.1712 8.60995 12.2782C8.68156 12.383 8.79874 12.5863 8.87253 12.7275C8.94414 12.8687 9.04396 13.0891 9.0917 13.2196C9.13945 13.348 9.21323 13.5898 9.25446 13.7546C9.29786 13.9193 9.35862 14.1889 9.38901 14.3537C9.41939 14.5184 9.4693 14.8308 9.49751 15.0491C9.52789 15.2673 9.56695 15.6182 9.58431 15.8301C9.60167 16.0419 9.62771 16.4827 9.6429 16.8101L9.67112 17.4027L14.3151 17.3921C14.3216 17.1931 14.3346 16.8892 14.3476 16.5897C14.3606 16.2901 14.3845 15.875 14.4019 15.6696C14.4214 15.4642 14.454 15.1411 14.48 14.9528C14.5039 14.7645 14.5473 14.4799 14.5777 14.3216C14.608 14.1632 14.6558 13.9364 14.6862 13.8188C14.7165 13.7011 14.7599 13.5427 14.7838 13.4657C14.8077 13.3887 14.8554 13.2496 14.8923 13.1555C14.9292 13.0613 15.016 12.8687 15.0855 12.7275C15.1549 12.5863 15.2786 12.3723 15.3589 12.2525C15.4413 12.1327 15.5824 11.9487 15.6735 11.846C15.7647 11.7433 15.9491 11.5614 16.0859 11.4416C16.2226 11.3217 16.4157 11.1655 16.5177 11.0906C16.6197 11.0179 16.7152 10.9516 16.7325 10.943C16.7564 10.9323 16.7477 10.8959 16.6957 10.759C16.6588 10.6648 16.6002 10.4873 16.5654 10.3631C16.5286 10.239 16.47 9.99298 16.4331 9.81753C16.3962 9.63993 16.3463 9.33181 16.3181 9.13282C16.2768 8.81615 16.2703 8.66851 16.2703 7.96669C16.2681 7.52591 16.2725 7.04876 16.279 6.90754L16.2898 6.65078C16.1379 6.63152 16.0381 6.61868 15.9708 6.61012C15.8472 6.59728 15.845 6.59728 15.8341 6.65505C15.8298 6.68929 15.8103 6.96531 15.7907 7.27129C15.7734 7.57726 15.743 7.98595 15.7235 8.18066C15.7061 8.37537 15.6757 8.61502 15.6584 8.71558C15.641 8.81615 15.5976 8.99802 15.5607 9.12212C15.5238 9.24623 15.4457 9.44736 15.3849 9.57146C15.3263 9.69556 15.233 9.86246 15.1766 9.94591C15.1202 10.0272 15.0117 10.162 14.9336 10.2433C14.8554 10.3246 14.7231 10.4445 14.6406 10.5108C14.556 10.5771 14.4344 10.6648 14.3693 10.7076C14.3042 10.7504 14.1675 10.8275 14.0655 10.881C13.9635 10.9344 13.7682 11.0243 13.6315 11.0778C13.4948 11.1313 13.2604 11.2083 13.1107 11.2511C12.961 11.2939 12.7266 11.3495 12.5899 11.3731C12.4098 11.4073 12.2513 11.4202 12.0256 11.4202C11.852 11.4202 11.6372 11.4095 11.5482 11.3945C11.4593 11.3774 11.2683 11.3367 11.1251 11.3046C10.9818 11.2704 10.7475 11.2019 10.6042 11.1548C10.461 11.1056 10.2223 11.0072 10.0726 10.9387C9.92284 10.8681 9.70801 10.7483 9.59516 10.6734C9.48232 10.6007 9.31305 10.4723 9.21974 10.391C9.12643 10.3118 8.98971 10.1727 8.91593 10.0807C8.84215 9.99084 8.73798 9.8432 8.68373 9.74906C8.62948 9.65705 8.55136 9.49443 8.50578 9.38959C8.46238 9.2826 8.40162 9.10073 8.36907 8.98304C8.33869 8.86536 8.29963 8.68135 8.28227 8.5765C8.26708 8.46952 8.24321 8.25769 8.23018 8.10577C8.21716 7.95171 8.19112 7.61578 8.17376 7.35687C8.1564 7.09797 8.13904 6.82195 8.1347 6.74064C8.12602 6.6037 8.12385 6.59728 8.07394 6.59942C8.04573 6.60156 7.94807 6.61226 7.85476 6.62724C7.76362 6.64008 7.68333 6.65505 7.67682 6.66147ZM16.8432 7.32478C16.8237 7.70565 16.8215 7.93673 16.841 8.27694C16.8541 8.52301 16.8801 8.84182 16.8953 8.98304C16.9127 9.12426 16.9387 9.30614 16.9517 9.38959C16.9647 9.47089 17.0016 9.65491 17.0298 9.79613C17.0602 9.93735 17.121 10.1642 17.1622 10.299C17.2035 10.4338 17.2751 10.6221 17.3206 10.7162C17.3684 10.8103 17.453 10.9494 17.5116 11.0265C17.5702 11.1035 17.7004 11.2426 17.8002 11.3367C17.9022 11.4309 18.0715 11.5764 18.1778 11.6619L18.3731 11.8139C18.9612 11.2768 19.3909 10.8703 19.7077 10.5643L20.2828 10.0058C19.8965 9.55862 19.6947 9.32326 19.584 9.19487C19.4733 9.06649 19.0827 8.60646 18.716 8.16996C18.2017 7.56229 18.0064 7.34832 17.8718 7.23919C17.7742 7.16216 17.5897 7.04662 17.4595 6.97815C17.3293 6.91182 17.1644 6.83907 17.0928 6.81553C17.0212 6.79199 16.9474 6.76632 16.9279 6.75776C16.9062 6.7492 16.8888 6.75776 16.8801 6.78344C16.8736 6.80483 16.8562 7.04876 16.8432 7.32478ZM6.5028 6.97601C6.43119 7.01238 6.29448 7.10011 6.19899 7.17072C6.10351 7.24133 5.97982 7.34404 5.92556 7.40181C5.87131 7.45958 5.50457 7.8811 5.11395 8.34114C4.72117 8.79903 4.24158 9.36177 4.04628 9.58858L3.69255 9.9994C4.54105 10.8061 4.94469 11.1848 5.13566 11.3624C5.32662 11.54 5.51542 11.709 5.55448 11.7411L5.62392 11.7967C5.91905 11.5742 6.09917 11.418 6.21635 11.3046C6.33354 11.1934 6.4811 11.0286 6.54187 10.9409C6.60263 10.8531 6.68509 10.7034 6.72632 10.6092C6.76538 10.5151 6.82181 10.361 6.85219 10.2669C6.8804 10.1727 6.93248 9.95019 6.96937 9.77473C7.00409 9.59714 7.04749 9.33395 7.06485 9.18632C7.08221 9.03868 7.10826 8.77763 7.12128 8.60218C7.13213 8.42886 7.14298 8.10791 7.14298 7.88752C7.14298 7.66499 7.1343 7.32478 7.12128 7.12793C7.10174 6.80911 7.09523 6.76846 7.06051 6.76846C7.04098 6.7706 6.93465 6.80269 6.82832 6.84121C6.71981 6.87972 6.57442 6.93963 6.5028 6.97601ZM6.73283 11.6791C6.84568 12.1263 6.91729 12.4387 6.96503 12.6633C7.01494 12.8859 7.09523 13.2903 7.14298 13.562C7.19072 13.8316 7.26884 14.3387 7.31658 14.6853C7.36215 15.032 7.41207 15.4086 7.42292 15.5198C7.43594 15.6311 7.45981 15.8664 7.47717 16.044C7.4967 16.2195 7.52057 16.5426 7.53359 16.7608C7.54661 16.9791 7.5618 17.1888 7.56614 17.2252C7.57265 17.2679 7.59218 17.3 7.61605 17.3065C7.63558 17.3107 7.84825 17.33 8.08696 17.3471C8.32567 17.3664 8.64684 17.3835 8.80091 17.3856L9.08085 17.3921C9.05698 16.6945 9.04179 16.335 9.03094 16.1403C9.01792 15.9456 8.99405 15.6332 8.97452 15.4449C8.95716 15.2566 8.92244 14.9828 8.89857 14.8351C8.8747 14.6875 8.82045 14.4136 8.77921 14.2253C8.73581 14.037 8.65769 13.7524 8.60561 13.5941C8.55353 13.4358 8.44068 13.1704 8.35822 13.0057C8.27359 12.8409 8.13904 12.6141 8.05875 12.5028C7.97846 12.3916 7.82004 12.2054 7.7072 12.0899C7.59001 11.9679 7.38168 11.7925 7.22544 11.6769C7.07136 11.5657 6.9455 11.4758 6.94116 11.4758C6.93899 11.4758 6.88908 11.5207 6.83483 11.5764L6.73283 11.6791ZM16.5047 11.8652C16.4222 11.9315 16.2855 12.0578 16.2009 12.1434C16.1162 12.229 15.986 12.383 15.9101 12.4814C15.8363 12.582 15.73 12.7404 15.6779 12.8345C15.6236 12.9286 15.5499 13.0741 15.513 13.1555C15.4761 13.2389 15.4131 13.4015 15.3741 13.5192C15.3328 13.6369 15.2656 13.868 15.2243 14.0327C15.1831 14.1975 15.1245 14.4928 15.0963 14.6853C15.0659 14.88 15.029 15.1796 15.0095 15.3486C14.9921 15.5198 14.9661 15.8194 14.9553 16.0119C14.9422 16.2067 14.9249 16.5961 14.9162 16.8785L14.8988 17.3899C15.5564 17.3664 15.8971 17.3471 16.0815 17.33C16.2681 17.3129 16.4201 17.2958 16.4222 17.2915C16.4244 17.2893 16.4374 17.1374 16.4504 16.9534C16.4635 16.7715 16.496 16.4057 16.5177 16.1403C16.5416 15.8771 16.5806 15.4856 16.6045 15.2738C16.6284 15.0619 16.6783 14.6725 16.713 14.4072C16.7499 14.144 16.7976 13.8059 16.8237 13.6583C16.8476 13.5128 16.9105 13.1704 16.9626 12.8987C17.0147 12.6291 17.0971 12.2482 17.147 12.0535L17.2338 11.7005C17.0732 11.5443 17.0212 11.4972 17.0147 11.4993C17.0103 11.4993 16.9257 11.555 16.8302 11.6213C16.7325 11.6898 16.5871 11.7989 16.5047 11.8652Z" fill="currentColor" stroke="currentColor" stroke-width="0.2"/>
</svg>
