<svg width="24" height="24" viewBox="0 0 24 24" fill="none" xmlns="http://www.w3.org/2000/svg">
<path d="M13.2873 22.3029C13.2824 22.3029 13.2775 22.3026 13.2727 22.3024C13.2232 22.2985 13.1775 22.2744 13.1461 22.2359C12.5814 21.5459 12.206 20.7415 11.9978 19.7769C11.8213 18.9589 11.7831 18.1394 11.7544 17.2298L11.4817 8.62649C10.9202 9.32572 10.1962 9.9261 9.49179 10.5104C9.31236 10.6594 9.12683 10.8133 8.94788 10.9655C7.94624 11.8183 7.06731 13.2336 6.81069 14.4071C6.79267 14.4891 6.72085 14.5485 6.63685 14.5505C6.5531 14.5522 6.47811 14.4969 6.45619 14.4158C5.95245 12.5621 5.44944 10.1993 6.03767 8.36574C6.18058 7.92044 6.38267 7.48927 6.57793 7.07221C6.69139 6.83021 6.80874 6.57968 6.91173 6.33208C7.20998 5.61459 7.37092 5.04513 7.25235 4.42283C7.23555 4.33494 7.28497 4.24778 7.36897 4.2171C7.85031 4.04132 8.25204 3.7348 8.64038 3.4385C8.75262 3.3528 8.86851 3.26443 8.98294 3.18189L11.2066 1.58038C11.4245 1.42335 11.6497 1.2612 11.9194 1.14531C12.2323 1.01092 12.5603 0.967827 12.8424 1.02407C12.8702 1.02967 12.8963 1.0416 12.9187 1.05888C13.6615 1.63516 14.4012 2.22824 15.1165 2.80184C15.7429 3.30435 16.4531 3.87357 16.8023 4.62028C17.091 5.23771 17.1017 5.90066 17.1122 6.54195L17.1132 6.60768C17.1828 10.7785 17.8153 14.9488 18.9928 19.0027C19.0054 19.0463 19.0013 19.093 18.9816 19.1339C18.5224 20.0735 17.371 20.5692 16.3053 20.9305C16.1812 20.9726 16.056 21.014 15.9306 21.0556C15.0152 21.3592 14.0686 21.673 13.409 22.2571C13.3749 22.2868 13.3318 22.3029 13.2873 22.3029ZM11.7685 6.14875L12.1193 17.2181C12.1671 18.721 12.2209 20.418 13.3145 21.8598C14.0143 21.3061 14.9288 21.003 15.8152 20.7091C15.9399 20.6678 16.0643 20.6266 16.1877 20.5847C17.1572 20.2563 18.1988 19.8156 18.6217 19.0351C17.4482 14.9717 16.8178 10.7933 16.748 6.61401L16.747 6.54803C16.7373 5.94521 16.7273 5.32195 16.4714 4.77512C16.1583 4.1056 15.4834 3.56438 14.8879 3.08694C14.1852 2.52356 13.4589 1.9412 12.7305 1.37539C12.5286 1.3452 12.2937 1.3822 12.0633 1.48105C11.8303 1.58111 11.6217 1.73133 11.4198 1.87692L9.19622 3.47843C9.08593 3.5578 8.9771 3.64107 8.86169 3.72896C8.48821 4.01381 8.10328 4.30743 7.63484 4.50488C7.72955 5.23138 7.49728 5.87412 7.24869 6.47256C7.14254 6.72771 7.02348 6.98189 6.90832 7.22754C6.71768 7.63413 6.52071 8.05459 6.3851 8.47773C5.88964 10.0223 6.21978 12.0014 6.64269 13.6881C7.03979 12.601 7.83083 11.437 8.71098 10.6874C8.89164 10.5335 9.07814 10.3789 9.25855 10.2292C10.0686 9.55725 10.9054 8.86338 11.4629 8.03779L11.4035 6.16019L11.7685 6.14875Z" fill="#460B2F" stroke="#460B2F" stroke-width="0.4"/>
<path d="M6.16422 9.41533L5.86523 9.20547C6.50021 8.30075 7.48554 7.60006 8.43848 6.9225C8.62571 6.78932 8.80247 6.6637 8.97753 6.53588C9.96213 5.81668 11.0563 4.9536 11.5798 3.80713L11.9121 3.95881C11.3521 5.18562 10.2151 6.08449 9.193 6.83096C9.016 6.96024 8.82999 7.09244 8.6503 7.22026C7.72243 7.8798 6.76316 8.56199 6.16422 9.41533Z" fill="#460B2F" stroke="#460B2F" stroke-width="0.4"/>
<path d="M7.27438 4.48001C7.09056 4.16813 7.09202 3.80099 7.09446 3.24516C7.0947 3.1765 7.09519 3.10419 7.09519 3.02848C7.09811 2.65135 7.0314 2.52402 6.86973 2.21603C6.85001 2.17854 6.82932 2.13886 6.8074 2.09625C6.7833 2.0495 6.78062 1.99497 6.79961 1.94603C6.8186 1.8971 6.8578 1.85887 6.90723 1.84086C7.09373 1.77293 7.24541 1.71693 7.39685 1.66118C7.54999 1.6047 7.70289 1.54845 7.89134 1.4798C7.97777 1.44839 8.07394 1.48588 8.11606 1.56769C8.15526 1.64365 8.19056 1.71377 8.22319 1.77902C8.39654 2.12425 8.4837 2.29759 8.70404 2.43807C9.03979 2.65208 9.28278 2.63504 9.61877 2.61142C9.68937 2.60655 9.76266 2.60144 9.84033 2.59827L9.85518 2.96323C9.78262 2.96615 9.71226 2.97102 9.64433 2.97589C9.28472 3.00121 8.94533 3.02482 8.50781 2.74606C8.20249 2.55153 8.081 2.30952 7.89694 1.94287C7.88647 1.92193 7.87576 1.9005 7.86456 1.87859C7.74209 1.92339 7.63277 1.9638 7.52321 2.00398C7.42777 2.03928 7.33208 2.07434 7.22788 2.11256C7.37591 2.39717 7.4638 2.5956 7.46039 3.02994C7.46039 3.10492 7.46015 3.17748 7.45966 3.24686C7.45747 3.7596 7.45601 4.06929 7.58895 4.29449L7.27438 4.48001Z" fill="#460B2F" stroke="#460B2F" stroke-width="0.4"/>
<path d="M7.61033 22.768C7.45548 22.768 7.32133 22.7072 7.20081 22.6526C7.11705 22.6146 7.03817 22.5789 6.96294 22.5679C6.86263 22.5535 6.74966 22.5811 6.63011 22.6103C6.50692 22.6402 6.36716 22.6743 6.21938 22.6663C6.03653 22.6563 5.88022 22.5854 5.74193 22.5229C5.71052 22.5087 5.67936 22.4946 5.64795 22.4812C5.48507 22.4121 5.34848 22.3948 5.26302 22.433C5.20848 22.4574 5.14567 22.4535 5.09454 22.4228C5.04341 22.3921 5.01054 22.3386 5.0064 22.2789C4.95138 21.494 5.26083 20.7702 5.56006 20.07C5.73487 19.6612 5.91552 19.2383 6.0134 18.819C6.16898 18.1529 6.19819 17.377 6.22668 16.6266C6.25614 15.849 6.28657 15.0451 6.45433 14.3269L6.81004 14.4099C6.65032 15.0938 6.62062 15.8802 6.59189 16.6405C6.56291 17.4082 6.53272 18.2019 6.36935 18.9021C6.26417 19.3525 6.07719 19.79 5.89629 20.2134C5.63017 20.8359 5.37745 21.4273 5.36601 22.0481H5.36942C5.49773 22.0481 5.63991 22.0805 5.79111 22.1448C5.82495 22.1591 5.85879 22.1745 5.89288 22.1898C6.01218 22.2439 6.12491 22.295 6.23934 22.3011C6.33308 22.3059 6.43558 22.2813 6.54392 22.2548C6.68514 22.2205 6.8451 22.1815 7.01504 22.2059C7.14189 22.2241 7.25364 22.2748 7.352 22.3193C7.46351 22.37 7.55944 22.4135 7.64661 22.3992C7.71137 22.3885 7.77199 22.3432 7.84211 22.2906C7.93488 22.2212 8.03981 22.1426 8.18808 22.1153C8.39382 22.0776 8.56717 22.1567 8.72007 22.2263C8.81989 22.2719 8.91436 22.3149 9.00298 22.3186C9.11547 22.3232 9.22333 22.2684 9.34871 22.2047C9.47215 22.1418 9.61215 22.0707 9.77747 22.0515C9.9625 22.0298 10.1359 22.0781 10.2888 22.1207C10.4224 22.1579 10.5485 22.1927 10.663 22.1784C10.7711 22.1645 10.8814 22.1197 10.9982 22.0722C11.1665 22.0038 11.3574 21.9264 11.5701 21.9381C11.6237 21.941 11.696 21.9634 11.8888 22.0267C11.9327 22.041 11.9916 22.0603 12.0498 22.0785C11.8582 20.7066 11.5217 19.547 11.1959 18.4232C11.1411 18.234 11.0866 18.0463 11.0333 17.8593C11.0097 17.7763 10.9844 17.6903 10.9583 17.6017C10.7772 16.9865 10.5517 16.221 10.5853 15.4001C10.6206 14.537 10.8468 14.0191 11.2575 13.0791C11.3574 12.8505 11.4706 12.5917 11.5952 12.2954L11.9319 12.4371C11.8063 12.7356 11.6926 12.9959 11.5923 13.2254C11.1867 14.1543 10.9829 14.6205 10.9503 15.4152C10.9191 16.1757 11.1351 16.9093 11.3087 17.4987C11.335 17.5883 11.3608 17.6755 11.3846 17.7595C11.4377 17.946 11.492 18.133 11.5468 18.3216C11.8971 19.5292 12.2592 20.7777 12.4464 22.2928C12.4576 22.3841 12.3994 22.4695 12.3103 22.4922C12.2236 22.5143 12.124 22.4883 11.7751 22.3739C11.6919 22.3466 11.5789 22.3093 11.5443 22.3025C11.4148 22.2967 11.2792 22.3522 11.1358 22.4106C11.0024 22.4649 10.8646 22.5209 10.7092 22.5409C10.5218 22.5647 10.346 22.516 10.1909 22.473C10.0587 22.4362 9.93353 22.4014 9.81983 22.4148C9.71928 22.4265 9.6197 22.4771 9.51427 22.5307C9.36478 22.6066 9.19508 22.6926 8.9874 22.6838C8.82744 22.677 8.68988 22.6142 8.56863 22.5589C8.44957 22.5046 8.34683 22.4576 8.25431 22.4747C8.19028 22.4863 8.13038 22.5311 8.06124 22.5832C7.97115 22.6507 7.85916 22.7347 7.70626 22.7598C7.67314 22.7656 7.64125 22.768 7.61033 22.768Z" fill="#460B2F" stroke="#460B2F" stroke-width="0.4"/>
<path d="M7.2056 20.4228L6.86426 20.2932C7.57982 18.4074 7.56935 17.6278 7.5506 16.2128L7.55036 16.203C7.54841 16.0511 7.54525 15.8926 7.54184 15.729C7.51384 14.3274 7.47902 12.5832 8.06457 11.3389L8.39496 11.4944C7.84569 12.6614 7.87953 14.3583 7.9068 15.722C7.90997 15.8865 7.91338 16.0458 7.91532 16.1984V16.2082C7.93431 17.6198 7.94551 18.4721 7.2056 20.4228Z" fill="#460B2F" stroke="#460B2F" stroke-width="0.4"/>
<path d="M10.2747 20.1325C10.114 19.127 9.78924 18.101 9.47492 17.1091C9.3264 16.6405 9.17301 16.156 9.0391 15.6805C8.80269 14.8408 8.66464 13.8484 8.66026 12.9581C8.6549 11.8437 8.85577 10.9098 9.24118 10.2573L9.55575 10.4431C8.80586 11.7125 8.94464 13.9967 9.39067 15.5814C9.52288 16.051 9.67554 16.5329 9.82308 16.9986C10.1413 18.0034 10.4702 19.0423 10.6353 20.0745L10.2747 20.1325Z" fill="#460B2F" stroke="#460B2F" stroke-width="0.4"/>
</svg>
