<svg width="24" height="24" viewBox="0 0 24 24" fill="none" xmlns="http://www.w3.org/2000/svg">
<path d="M18.0999 6.08002C18.4599 4.96003 17.9399 3.80002 16.8999 3.32002C16.2598 3.03998 15.4999 2.79998 14.9799 2.64C14.6999 2.55998 14.4999 2.28 14.4999 2.00002V0.84C14.4999 0.36 14.1399 0 13.6599 0H11.3399C10.8599 0 10.4999 0.36 10.4999 0.84V2.00002C10.4999 2.28 10.2999 2.56003 10.0199 2.64C9.4999 2.79998 8.73987 3.03998 8.09988 3.32002C7.05987 3.80002 6.53988 4.96003 6.89988 6.08002L8.1799 9.88003C8.61991 11.24 8.61991 12.72 8.1799 14.04L7.8199 15.16C7.6999 15.56 7.65991 16 7.73988 16.36C7.89987 17.16 8.49987 17.6 9.29988 17.6H12.0999V19.2C12.0999 21.4 10.2999 23.2 8.09988 23.2C7.85988 23.2 7.6999 23.36 7.6999 23.6C7.6999 23.84 7.85988 24 8.09988 24C9.76455 24 11.2381 23.141 12.0999 21.8445V23.5999C12.0999 23.8399 12.2599 23.9999 12.4999 23.9999C12.7399 23.9999 12.8998 23.8399 12.8998 23.5999V21.8445C13.7616 23.141 15.2352 24 16.8999 24C17.1399 24 17.2999 23.84 17.2999 23.6C17.2999 23.36 17.1399 23.2 16.8999 23.2C14.6999 23.2 12.8999 21.4 12.8999 19.2V17.6001H15.6999C16.4999 17.6001 17.0999 17.16 17.2599 16.4001C17.3399 16.0001 17.2999 15.6 17.1799 15.2001L16.8199 14.0801C16.3798 12.7201 16.3798 11.2401 16.8199 9.92006L18.0999 6.08002ZM10.2598 3.39998C10.8999 3.20002 11.2999 2.64 11.2999 2.00002L11.3398 0.800016H13.6598C13.6998 0.800016 13.6998 0.800016 13.6998 0.84V2.00002C13.6998 2.64 14.0998 3.20002 14.7398 3.40003C14.9748 3.47236 15.2508 3.56109 15.5379 3.66239C14.8661 4.22288 13.3839 4.53952 11.7798 4.40002C10.7347 4.30205 9.84977 4.01733 9.45129 3.67669C9.75185 3.56944 10.0328 3.47569 10.2598 3.39998ZM16.0599 14.32L16.4199 15.44C16.4999 15.72 16.4999 15.96 16.4599 16.2C16.3798 16.5999 16.1398 16.8 15.6999 16.8H9.29983C8.85982 16.8 8.61982 16.5999 8.53985 16.2C8.45983 15.96 8.49987 15.72 8.57983 15.44L8.93983 14.32C9.41983 12.84 9.41983 11.2 8.93983 9.67997L7.65982 5.83997C7.41982 5.15995 7.73983 4.35998 8.4198 4.07995C8.50076 4.04456 8.58297 4.00978 8.66585 3.97575C9.11074 4.58995 10.2278 5.05228 11.6998 5.15995C11.9798 5.19994 12.2198 5.19994 12.4999 5.19994C14.0209 5.19994 15.6136 4.83802 16.3514 3.97753C16.429 4.011 16.5054 4.04513 16.5799 4.07991C17.2198 4.35989 17.5798 5.15991 17.3398 5.83992L16.0598 9.67992C15.5398 11.16 15.5398 12.8 16.0599 14.32Z" fill="#460B2F"/>
</svg>
