<svg width="167" height="41" viewBox="0 0 167 41" fill="none" xmlns="http://www.w3.org/2000/svg">
<g clip-path="url(#clip0_26203_144649)">
<path d="M44.1492 38.5026V36.2418C44.9739 36.2418 45.5569 36.0712 45.8981 35.7299C46.2394 35.3602 46.4526 34.8484 46.538 34.1943C46.6233 33.5402 46.6659 32.8008 46.6659 31.9762V23.9567C46.6659 23.4449 46.6801 22.9045 46.7086 22.3358C46.737 21.767 46.7797 21.1841 46.8366 20.5869C46.3816 20.6153 45.8555 20.6437 45.2583 20.6722C44.6895 20.7006 44.2203 20.7291 43.8506 20.7575V17.9848C45.1303 17.9848 46.1825 17.9279 47.0072 17.8142C47.8319 17.672 48.4717 17.5014 48.9267 17.3023C49.3817 17.1033 49.7088 16.9184 49.9078 16.7478H51.6994C51.7563 17.0606 51.7847 17.3165 51.7847 17.5156C51.7847 17.7147 51.7989 17.9279 51.8274 18.1554C51.8558 18.3545 51.8985 18.6531 51.9553 19.0512C52.5241 18.5678 53.1782 18.1412 53.9175 17.7715C54.6854 17.3734 55.4532 17.0606 56.221 16.8331C56.9888 16.6056 57.6997 16.4918 58.3538 16.4918C60.9132 16.4918 62.7474 17.2454 63.8565 18.7526C64.9656 20.2598 65.5201 22.6628 65.5201 25.9616V32.4027C65.5201 32.8577 65.5059 33.4123 65.4775 34.0663C65.4775 34.692 65.4348 35.3034 65.3495 35.9006C65.8329 35.8437 66.3306 35.8152 66.8425 35.8152C67.3543 35.7868 67.7809 35.7726 68.1222 35.7726V38.5026H57.7566V36.2418C58.5813 36.2418 59.1643 36.0712 59.5055 35.7299C59.8752 35.3602 60.1027 34.8484 60.188 34.1943C60.2734 33.5402 60.316 32.8008 60.316 31.9762L60.2734 25.9189C60.2734 23.8714 59.9605 22.35 59.3349 21.3547C58.7377 20.3309 57.7424 19.819 56.349 19.819C55.5243 19.8475 54.7138 20.0465 53.9175 20.4162C53.1213 20.7859 52.453 21.2552 51.9127 21.8239C51.9411 22.1652 51.9553 22.5206 51.9553 22.8903C51.9553 23.26 51.9553 23.6297 51.9553 23.9994L51.9127 32.4027C51.9127 32.8577 51.8985 33.4123 51.87 34.0663C51.87 34.692 51.8274 35.3034 51.7421 35.9006C52.1971 35.8437 52.6805 35.8152 53.1924 35.8152C53.7327 35.7868 54.1735 35.7726 54.5147 35.7726V38.5026H44.1492ZM72.4701 36.2418C73.2948 36.2418 73.8778 36.0712 74.219 35.7299C74.5887 35.3602 74.802 34.8484 74.8589 34.1943C74.9442 33.5402 74.9869 32.8008 74.9869 31.9762V13.5485C74.9869 13.0651 75.0011 12.539 75.0295 11.9702C75.0579 11.3731 75.1006 10.7616 75.1575 10.136C74.674 10.1645 74.1479 10.1929 73.5792 10.2213C73.0104 10.2498 72.527 10.2782 72.1289 10.3066V7.53397C73.437 7.53397 74.5034 7.47707 75.3281 7.36327C76.1812 7.22117 76.8353 7.05047 77.2903 6.85147C77.7737 6.65237 78.115 6.46757 78.3141 6.29688H80.2336L80.2763 32.4027C80.2763 32.8577 80.262 33.4123 80.2336 34.0663C80.2052 34.692 80.1483 35.3034 80.063 35.9006C80.5464 35.8437 81.0441 35.8152 81.556 35.8152C82.0678 35.7868 82.4944 35.7726 82.8357 35.7726V38.5026H72.4701V36.2418ZM87.9471 36.2418C88.7718 36.2418 89.3548 36.0712 89.696 35.7299C90.0373 35.3602 90.2506 34.8484 90.3359 34.1943C90.4212 33.5402 90.4638 32.8008 90.4638 31.9762V23.9994C90.4638 23.5159 90.4781 22.9898 90.5065 22.4211C90.5349 21.8239 90.5776 21.2125 90.6345 20.5869C90.151 20.6153 89.6249 20.6437 89.0562 20.6722C88.4874 20.7006 88.0182 20.7291 87.6485 20.7575V17.9848C88.9282 17.9848 89.9804 17.9279 90.8051 17.8142C91.6582 17.672 92.3123 17.5014 92.7673 17.3023C93.2507 17.1033 93.592 16.9184 93.791 16.7478H95.7106V32.4027C95.7106 32.8577 95.6964 33.4123 95.6679 34.0663C95.6679 34.692 95.6253 35.3034 95.54 35.9006C95.995 35.8437 96.4784 35.8152 96.9903 35.8152C97.5306 35.7868 97.9714 35.7726 98.3126 35.7726V38.5026H87.9471V36.2418ZM92.8526 13.0793C92.0279 13.0793 91.3312 12.7807 90.7624 12.1835C90.1937 11.5579 89.9093 10.8043 89.9093 9.92267C89.9093 9.04117 90.1937 8.28757 90.7624 7.66187C91.3596 7.03627 92.0563 6.72347 92.8526 6.72347C93.6773 6.72347 94.3598 7.03627 94.9001 7.66187C95.4689 8.28757 95.7532 9.04117 95.7532 9.92267C95.7532 10.8043 95.4831 11.5579 94.9428 12.1835C94.4025 12.7807 93.7057 13.0793 92.8526 13.0793ZM113.563 39.1851C111.516 39.1851 109.696 38.7301 108.103 37.8201C106.511 36.8817 105.274 35.5735 104.392 33.8957C103.51 32.1894 103.07 30.1846 103.07 27.8811C103.07 25.8905 103.51 24.0278 104.392 22.2931C105.274 20.5584 106.511 19.165 108.103 18.1128C109.724 17.0322 111.601 16.4918 113.734 16.4918C114.928 16.4918 116.08 16.6625 117.189 17.0037C118.298 17.345 119.293 17.9137 120.175 18.71C121.056 19.5062 121.753 20.5584 122.265 21.8666C122.805 23.1747 123.061 24.7672 123.033 26.6441L108.7 26.9C108.7 28.6632 108.899 30.2272 109.297 31.5922C109.724 32.9288 110.407 33.9952 111.345 34.7915C112.283 35.5593 113.52 35.9432 115.056 35.9432C115.739 35.9432 116.464 35.8295 117.232 35.602C118.028 35.346 118.81 34.9763 119.578 34.4929C120.346 33.981 121.028 33.3554 121.625 32.616L123.246 34.109C122.308 35.474 121.27 36.5262 120.132 37.2656C118.995 38.0049 117.857 38.5026 116.72 38.7585C115.582 39.0429 114.53 39.1851 113.563 39.1851ZM108.914 24.3406H117.786C117.758 23.2031 117.587 22.2505 117.274 21.4827C116.99 20.6864 116.563 20.0892 115.995 19.6911C115.426 19.2645 114.729 19.0512 113.904 19.0512C112.511 19.0512 111.388 19.5205 110.535 20.4589C109.71 21.3689 109.17 22.6628 108.914 24.3406ZM137.965 39.1851C136.657 39.1851 135.434 39.0145 134.297 38.6732C133.159 38.332 132.249 37.9196 131.567 37.4362L131.695 38.8012H128.922L128.709 31.4643H131.012C131.098 32.4312 131.439 33.3127 132.036 34.109C132.633 34.8768 133.401 35.4882 134.34 35.9432C135.306 36.3698 136.373 36.5831 137.539 36.5831C138.108 36.5831 138.648 36.4977 139.16 36.3271C139.7 36.1565 140.141 35.8863 140.482 35.5166C140.852 35.1185 141.037 34.6209 141.037 34.0237C141.037 33.398 140.823 32.8862 140.397 32.488C139.999 32.0899 139.43 31.7202 138.69 31.379C137.951 31.0377 137.084 30.6822 136.088 30.3126C135.207 29.9713 134.325 29.6158 133.444 29.2461C132.562 28.8764 131.752 28.4357 131.012 27.9238C130.273 27.3835 129.676 26.7294 129.221 25.9616C128.766 25.1938 128.538 24.2553 128.538 23.1463C128.538 22.3784 128.68 21.6106 128.965 20.8428C129.249 20.075 129.704 19.364 130.33 18.71C130.955 18.0275 131.752 17.4872 132.719 17.089C133.714 16.6909 134.922 16.4918 136.344 16.4918C137.112 16.4918 137.98 16.6198 138.946 16.8757C139.913 17.1033 140.766 17.5014 141.506 18.0701L141.463 16.7051H144.236V24.2127H141.932C141.79 23.2174 141.477 22.3358 140.994 21.568C140.51 20.7717 139.871 20.1461 139.074 19.6911C138.278 19.2361 137.325 19.0086 136.216 19.0086C135.306 19.0086 134.539 19.2361 133.913 19.6911C133.287 20.1176 132.975 20.7575 132.975 21.6106C132.975 22.3216 133.216 22.9045 133.7 23.3595C134.183 23.8145 134.837 24.1984 135.662 24.5113C136.487 24.8241 137.382 25.1653 138.349 25.535C139.686 25.99 140.894 26.5303 141.975 27.156C143.084 27.7816 143.966 28.5352 144.62 29.4168C145.274 30.2983 145.601 31.3932 145.601 32.7013C145.601 34.1801 145.231 35.4029 144.492 36.3698C143.752 37.3082 142.8 38.0192 141.634 38.5026C140.468 38.9576 139.245 39.1851 137.965 39.1851ZM159.317 39.1851C158.52 39.1851 157.738 39.0856 156.97 38.8865C156.231 38.6874 155.549 38.3178 154.923 37.7774C154.326 37.2371 153.842 36.4409 153.473 35.3887C153.103 34.308 152.918 32.8862 152.918 31.123L153.003 20.1176L149.975 20.1603V17.1743C150.828 17.1459 151.653 16.8615 152.449 16.3212C153.245 15.7525 153.942 15.0131 154.539 14.1031C155.136 13.1931 155.534 12.2262 155.733 11.2024H158.335L158.293 17.1743H164.307V19.9044L158.293 20.0323L158.25 30.9951C158.25 31.8482 158.321 32.6444 158.463 33.3838C158.634 34.0948 158.918 34.6635 159.317 35.0901C159.743 35.5166 160.312 35.7299 161.023 35.7299C161.563 35.7299 162.175 35.5593 162.857 35.218C163.568 34.8768 164.279 34.1943 164.99 33.1705L166.739 34.7488C166.028 35.8295 165.288 36.6684 164.521 37.2656C163.781 37.8628 163.056 38.3035 162.345 38.5879C161.663 38.8723 161.051 39.0429 160.511 39.0998C159.971 39.1567 159.573 39.1851 159.317 39.1851Z" fill="white"/>
<path d="M161.207 5.78196V2.11293H163.001C163.233 2.11293 163.446 2.16098 163.638 2.2571C163.833 2.35322 163.987 2.49242 164.1 2.67472C164.216 2.85369 164.274 3.07244 164.274 3.33097C164.274 3.58949 164.214 3.8099 164.095 3.99219C163.976 4.17448 163.817 4.31368 163.618 4.4098C163.419 4.5026 163.199 4.54901 162.957 4.54901H161.729V3.85795H162.758C162.897 3.85795 163.016 3.81321 163.116 3.72372C163.219 3.63423 163.27 3.50166 163.27 3.32599C163.27 3.1437 163.219 3.01444 163.116 2.93821C163.016 2.85866 162.899 2.81889 162.763 2.81889H162.161V5.78196H161.207ZM163.548 4.08665L164.384 5.78196H163.339L162.559 4.08665H163.548ZM162.643 7.96946C162.093 7.96946 161.578 7.86671 161.097 7.66122C160.617 7.45573 160.194 7.17069 159.83 6.80611C159.465 6.44152 159.18 6.01894 158.974 5.53835C158.769 5.05776 158.666 4.54238 158.666 3.99219C158.666 3.442 158.769 2.92661 158.974 2.44602C159.18 1.96544 159.465 1.54285 159.83 1.17827C160.194 0.813684 160.617 0.528646 161.097 0.323153C161.578 0.117661 162.093 0.0149144 162.643 0.0149144C163.194 0.0149144 163.709 0.117661 164.19 0.323153C164.67 0.528646 165.093 0.813684 165.457 1.17827C165.822 1.54285 166.107 1.96544 166.312 2.44602C166.518 2.92661 166.621 3.442 166.621 3.99219C166.621 4.54238 166.518 5.05776 166.312 5.53835C166.107 6.01894 165.822 6.44152 165.457 6.80611C165.093 7.17069 164.67 7.45573 164.19 7.66122C163.709 7.86671 163.194 7.96946 162.643 7.96946ZM162.643 6.92045C163.187 6.92045 163.679 6.78954 164.12 6.5277C164.564 6.26255 164.917 5.90956 165.179 5.46875C165.441 5.02462 165.572 4.53243 165.572 3.99219C165.572 3.45194 165.439 2.96141 165.174 2.5206C164.912 2.07647 164.559 1.72348 164.115 1.46165C163.674 1.1965 163.184 1.06392 162.643 1.06392C162.107 1.06392 161.616 1.1965 161.172 1.46165C160.728 1.72348 160.375 2.07647 160.113 2.5206C159.851 2.96141 159.72 3.45194 159.72 3.99219C159.72 4.53243 159.851 5.02462 160.113 5.46875C160.375 5.90956 160.728 6.26255 161.172 6.5277C161.616 6.78954 162.107 6.92045 162.643 6.92045Z" fill="white"/>
<path d="M10.2173 33.903C10.2173 33.903 11.5946 35.3516 11.8601 35.557C11.8601 35.557 12.4823 36.1402 12.9003 36.5473C13.2598 36.8974 13.813 37.3767 14.2029 37.5552C14.5927 37.7403 15.3764 38.2233 15.7461 38.4348C16.1157 38.6464 16.912 38.938 17.3624 39.085C17.8385 39.2403 18.8693 39.4578 18.9029 39.4578C18.9365 39.4578 18.535 38.676 18.535 38.6562C18.535 38.6363 18.3669 38.3653 18.1585 38.0413C17.9502 37.724 17.6477 37.3009 17.4931 37.1026C17.3385 36.9043 17.0138 36.6074 16.8324 36.4223C16.5743 36.2132 16.2102 35.906 15.7461 35.6506C15.8822 35.2443 16.1323 34.5831 16.2533 34.1996C16.381 33.8162 16.6432 33.1948 16.8448 32.8113C17.0398 32.4279 17.3624 31.8527 17.564 31.5288C17.8463 31.0859 17.9942 30.914 18.1824 30.8214C18.3706 30.7289 18.579 30.6958 18.9554 30.6958C19.2445 30.6958 19.7687 30.7289 20.1183 30.7619C20.5081 30.795 20.9585 30.795 21.2744 30.7553C21.5634 30.7223 21.8793 30.6561 21.9801 30.6033C22.0877 30.557 22.2087 30.4313 22.2557 30.3256C22.3297 30.1735 22.3297 30.0545 22.2759 29.7834C22.2356 29.5983 22.1684 29.3802 22.1347 29.3075C22.081 29.2083 22.1011 29.1356 22.202 29.01C22.2759 28.9174 22.4775 28.805 22.6523 28.7521C22.9077 28.6794 22.9682 28.6397 22.9548 28.5406C22.9413 28.4679 22.8808 28.3621 22.8203 28.296C22.7531 28.2299 22.6523 28.1637 22.5851 28.1505C22.5246 28.1307 22.4708 28.0976 22.4708 28.0646C22.4708 28.0381 22.612 27.9456 22.78 27.853C22.9481 27.7605 23.1295 27.6084 23.1833 27.5026C23.2371 27.4035 23.2774 27.2514 23.2774 27.1589C23.2774 27.0663 23.2438 26.9936 23.2102 26.9936C23.1766 26.9936 23.0825 26.8944 23.0086 26.7754C22.9212 26.6432 22.8741 26.4449 22.8741 26.2466C22.8741 25.9425 22.8808 25.9358 23.2169 25.7507C23.4051 25.6516 23.6874 25.4797 23.842 25.3739C23.9899 25.2615 24.1243 25.1095 24.1378 25.0434C24.1512 24.9574 23.8958 24.5608 23.4387 23.9526C23.0489 23.4237 22.6389 22.8419 22.5313 22.6634C22.4238 22.4783 22.3364 22.3196 22.3364 22.2998C22.3364 22.28 22.4641 22.2073 22.6187 22.1345C22.78 22.0618 23.022 21.9031 23.1564 21.7842C23.2976 21.6718 23.3984 21.5462 23.3782 21.5065C23.3581 21.4668 23.2371 21.48 23.0556 21.5395C22.901 21.599 22.6456 21.6387 22.4843 21.6387C22.3297 21.6387 22.202 21.6255 22.202 21.6057C22.202 21.5858 22.3028 21.4536 22.4171 21.3016C22.6254 21.0437 22.6389 21.0041 22.6389 20.4553C22.6389 20.0058 22.5985 19.7612 22.4439 19.2918C22.3364 18.9679 22.007 18.2341 21.2004 16.6474L21.3954 16.4161C21.5029 16.2904 21.671 16.0194 21.7785 15.8211C21.9398 15.5037 21.9667 15.3848 21.9667 14.8955C21.9667 14.4328 21.9398 14.2807 21.8054 14.0361C21.718 13.8709 21.5029 13.6064 21.3282 13.4411C21.1601 13.2759 20.8375 13.0511 20.6157 12.9387C20.4006 12.8263 20.0511 12.6743 19.8494 12.6148C19.6478 12.5487 19.2377 12.4561 18.942 12.4098C18.6194 12.3569 18.0883 12.3305 17.5976 12.3503C16.9554 12.3763 15.5536 12.6678 15.5536 12.6678" stroke="white" stroke-width="0.5"/>
<mask id="mask0_26203_144649" style="mask-type:luminance" maskUnits="userSpaceOnUse" x="5" y="8" width="14" height="30">
<path d="M18.4188 8.04688H5.66504V37.112H18.4188V8.04688Z" fill="white"/>
</mask>
<g mask="url(#mask0_26203_144649)">
<path d="M16.4732 8.56449C16.4208 8.29349 16.3487 8.06209 16.3093 8.04889C16.27 8.03569 16.2241 8.08859 16.1979 8.17449C16.1782 8.26039 16.0667 8.46539 15.9553 8.63729C15.8438 8.81579 15.6209 9.04049 15.4504 9.15289C15.2734 9.26529 15.0963 9.35129 15.057 9.35129C14.9914 9.35129 14.9718 9.19259 14.9718 8.78929C14.9718 8.47859 14.9521 8.23399 14.9259 8.24719C14.8931 8.26039 14.7292 8.33319 14.5456 8.41909C14.3686 8.50499 14.0276 8.61739 13.7916 8.66369C13.5555 8.71659 12.9982 8.75629 12.5458 8.75629C11.9754 8.75629 11.4377 8.70339 10.7755 8.59099C10.251 8.50499 9.2216 8.36619 8.4807 8.28689C7.26772 8.16129 7.03168 8.15469 6.05475 8.22079C5.45809 8.26039 4.69097 8.35299 4.35002 8.42569C4.00908 8.49179 3.4911 8.63729 3.20261 8.73639C2.91412 8.84219 2.47482 9.04049 2.21911 9.17939C1.92407 9.34459 1.55689 9.64209 1.19628 10.0057C0.756984 10.4553 0.573398 10.6999 0.337359 11.1693C0.173443 11.4932 -0.0363707 12.0022 -0.128161 12.2931C-0.219951 12.584 -0.357641 13.1922 -0.436321 13.6484C-0.528121 14.2037 -0.587131 14.9045 -0.613351 15.7639C-0.639581 16.577 -0.626461 17.2976 -0.574011 17.7141C-0.534671 18.0777 -0.449441 18.5669 -0.390431 18.8049C-0.331421 19.0429 -0.219951 19.3801 -0.141271 19.5652C-0.0625908 19.7437 0.225897 20.2197 0.494719 20.6229C0.770097 21.0262 1.09137 21.5551 1.22251 21.8129C1.35364 22.0707 1.53067 22.4674 1.62246 22.7054C1.7077 22.9434 1.8585 23.4458 1.95685 23.8292C2.07487 24.2986 2.12076 24.6159 2.10109 24.8209C2.08142 24.9862 1.94374 25.482 1.79949 25.9249C1.64869 26.3745 1.37986 27.0752 1.20284 27.4785C1.01925 27.8884 0.711087 28.5098 0.520945 28.8536C0.324246 29.1973 0.00297131 29.713 -0.200281 29.9907C-0.469111 30.3741 -0.547791 30.5195 -0.482221 30.5658C-0.442881 30.5923 -0.193731 30.6584 0.0554243 30.7046C0.311133 30.7509 0.927457 30.903 1.43232 31.0484C1.93718 31.1939 2.76331 31.4715 3.26818 31.6765C3.77304 31.8748 4.63196 32.2648 5.1696 32.5359C5.7138 32.8069 6.43503 33.197 6.77597 33.4019C7.11692 33.6002 7.70702 33.9771 8.0873 34.2283C8.46759 34.4861 8.99867 34.8563 9.2675 35.0547C9.53632 35.253 10.0936 35.6959 10.5001 36.0397C10.5395 36.0397 10.9853 35.8942 10.9853 35.8281C10.7231 35.4183 10.4018 35.048 9.94939 34.6183L9.30028 34.0035C9.43797 33.4217 9.56254 32.9854 9.66745 32.6549C9.7658 32.3309 10.0805 31.5971 10.3559 31.0352L10.8608 30.0105C10.7821 28.5759 10.7886 28.2321 10.8345 28.1065C10.8935 27.9611 10.9788 27.9082 11.2869 27.8223C11.5558 27.7429 11.7787 27.7231 12.0868 27.7562C12.3229 27.7826 12.8868 27.8884 13.3523 28.0008C13.8112 28.1065 14.3095 28.1925 14.4669 28.1925C14.6177 28.1925 14.8472 28.1594 14.9718 28.1198C15.0963 28.0735 15.2996 27.9743 15.4176 27.8884C15.5291 27.8024 15.693 27.6041 15.7717 27.4454C15.8766 27.2471 15.9159 27.0554 15.9094 26.7711C15.9094 26.553 15.8635 26.2819 15.811 26.1761C15.752 26.0704 15.634 25.8786 15.5356 25.7596L15.3652 25.5481C15.6274 25.3696 15.8176 25.2242 15.9487 25.1118C16.1847 24.9068 16.1847 24.9002 16.0733 24.7283C16.0077 24.6358 15.7848 24.4705 15.5815 24.3647L15.2012 24.173C15.4832 24.0606 15.5815 24.0276 15.6143 24.0276C15.6405 24.0276 15.7979 23.9416 15.9749 23.8292C16.2634 23.6441 16.2831 23.6177 16.2634 23.3797C16.2503 23.2475 16.1782 23.0425 16.093 22.9368C16.0143 22.8244 15.9487 22.6459 15.9553 22.5203C15.9553 22.3153 15.9618 22.3087 16.2372 22.3087C16.388 22.3087 16.6306 22.2757 16.7748 22.2426C16.9191 22.2096 17.0896 22.117 17.1551 22.0311C17.2207 21.9451 17.2731 21.7997 17.2666 21.6939C17.2666 21.5947 17.1223 21.2245 16.9453 20.8675C16.7617 20.5172 16.4405 19.9552 16.2306 19.6313C16.0143 19.3074 15.6537 18.8115 15.4307 18.5405L15.0242 18.0447C15.2275 17.6877 15.3324 17.4166 15.3914 17.2183C15.457 17.0067 15.4963 16.6167 15.4963 16.2729C15.4963 15.9556 15.4504 15.4796 15.3914 15.2152C15.3324 14.9573 15.2144 14.5541 15.1291 14.3227C15.0439 14.0979 14.8669 13.7013 14.7423 13.45C14.6177 13.1922 14.5128 12.9807 14.5128 12.9674C14.5128 12.9608 14.6636 12.9344 14.8537 12.9146C15.0439 12.8947 15.3652 12.7889 15.5619 12.6832C15.7782 12.5642 16.0077 12.3725 16.1388 12.194C16.2569 12.0287 16.4077 11.7312 16.4667 11.5329C16.5519 11.2486 16.5781 10.9313 16.5716 10.1115C16.565 9.52969 16.5191 8.83559 16.4732 8.56449Z" fill="white"/>
</g>
<mask id="mask1_26203_144649" style="mask-type:luminance" maskUnits="userSpaceOnUse" x="21" y="0" width="21" height="42">
<path d="M41.7497 0.09375H21.8413V41.091H41.7497V0.09375Z" fill="white"/>
</mask>
<g mask="url(#mask1_26203_144649)">
<path d="M21.0294 40.6308C32.9835 40.4641 40.2551 31.2438 40.2551 21.468V20.6904C39.8144 9.2483 33.4242 0.97218 21.0294 0.75H20.6989C9.24062 0.75 1.58341 9.1927 1.52832 20.6904V20.857C1.52832 32.6879 9.57114 40.6308 20.5336 40.6308H21.0294ZM9.29571 5.8601C11.7196 2.86068 15.0799 1.36099 19.3768 1.36099C22.7371 1.36099 25.6568 2.24969 28.1357 3.9716C30.6147 5.6934 32.5428 8.1374 33.92 11.2479C35.2972 14.3583 36.0133 17.9132 36.0133 21.9124C36.0133 25.6894 35.3522 28.9109 34.1403 31.6326C32.8733 34.3543 31.2207 36.4094 29.0722 37.8536C26.9238 39.2422 24.555 39.9642 21.8557 39.9642C18.7157 39.9642 15.9062 39.02 13.4824 37.0759C11.0034 35.1874 9.07535 32.6324 7.69816 29.2997C6.32096 26.0226 5.65991 22.3567 5.65991 18.3575C5.65991 13.0808 6.87184 8.915 9.29571 5.8601Z" fill="white"/>
</g>
<mask id="mask2_26203_144649" style="mask-type:luminance" maskUnits="userSpaceOnUse" x="1" y="0" width="41" height="42">
<path d="M41.75 0.09375H1V41.091H41.75V0.09375Z" fill="white"/>
</mask>
<g mask="url(#mask2_26203_144649)">
<path fill-rule="evenodd" clip-rule="evenodd" d="M20.7599 40.9641H20.2641C14.6803 40.9641 9.80929 38.9387 6.33402 35.3776C2.85871 31.8163 0.813965 26.7554 0.813965 20.747V20.5788C0.841938 14.7418 2.8013 9.6433 6.24536 5.9996C9.6924 2.35268 14.5931 0.199465 20.428 0.199465H20.7611L20.7665 0.199565C27.0509 0.312215 31.8749 2.47249 35.1788 6.1118C38.4744 9.7419 40.2014 14.7813 40.4239 20.558L40.4244 20.5699V21.3528C40.4244 31.3528 32.9743 40.7938 20.7641 40.964L20.7599 40.9641ZM1.42083 20.5818C1.4602 12.3656 5.41498 5.7228 11.8742 2.6534C14.0276 1.63013 16.4593 1.00401 19.1172 0.849195C19.3564 0.835255 19.5975 0.825135 19.8404 0.818895C20.0351 0.813885 20.231 0.811365 20.428 0.811365H20.7557C33.0448 1.03166 39.3805 9.2372 39.8175 20.5818V21.3528C39.8175 29.7396 34.4195 37.714 25.2865 39.8174C24.2672 40.0521 23.2014 40.2137 22.0914 40.2946C21.653 40.3265 21.2078 40.3459 20.7557 40.3522H20.2641C9.39511 40.3522 1.42083 32.4771 1.42083 20.747V20.5818ZM25.151 39.2203C26.4159 38.87 27.6035 38.3268 28.73 37.5987C30.8601 36.1668 32.4986 34.1292 33.7549 31.4307C34.9565 28.7323 35.6119 25.5382 35.6119 21.7933C35.6119 17.8282 34.9018 14.3037 33.5364 11.2198C32.1709 8.1358 30.2593 5.7127 27.8015 4.0055C25.5223 2.42237 22.8674 1.5496 19.8367 1.43109C19.5992 1.4218 19.3593 1.41714 19.1172 1.41714C16.4287 1.41714 14.11 2.00928 12.1611 3.19359C11.0217 3.88589 10.0087 4.7807 9.12201 5.8779C6.71881 8.9068 5.51721 13.0371 5.51721 18.2688C5.51721 22.2339 6.17263 25.8686 7.53808 29.1178C8.90354 32.422 10.8152 34.9553 13.273 36.8277C15.6762 38.7552 18.4617 39.6914 21.575 39.6914C21.7371 39.6914 21.898 39.6887 22.0577 39.6835C23.1405 39.648 24.169 39.4923 25.151 39.2203ZM9.59421 6.26229C11.8673 3.45069 15.0157 2.02905 19.1172 2.02905C22.3369 2.02905 25.1093 2.87858 27.4572 4.5094C29.8105 6.144 31.6555 8.4727 32.9822 11.4692C34.3086 14.4649 35.005 17.9028 35.005 21.7933C35.005 25.4635 34.3633 28.5686 33.2033 31.1755C31.9861 33.7884 30.4159 35.7287 28.3978 37.0865C26.3666 38.3982 24.1332 39.0795 21.575 39.0795C18.5917 39.0795 15.9411 38.1857 13.6508 36.3488L13.6449 36.3441L13.6388 36.3395C11.2761 34.5394 9.42698 32.0977 8.09828 28.8824L8.09686 28.879C6.76815 25.7173 6.12408 22.1659 6.12408 18.2688C6.12408 13.129 7.304 9.14999 9.59421 6.26229ZM63.8474 38.8041C65.1342 38.3117 65.7255 36.8354 65.7701 35.3958V21.518C65.7701 19.5354 65.6063 17.2775 64.0224 16.1761C63.2577 15.6805 62.3292 15.4051 61.2914 15.4051C60.1445 15.4051 58.8882 15.7356 57.6866 16.2312C57.404 16.3653 57.1302 16.5173 56.8653 16.6846C55.6933 17.4247 54.6947 18.4649 53.8694 19.5866C53.788 19.6974 53.7082 19.8089 53.6301 19.9209C53.5975 19.9678 53.5652 20.0147 53.5331 20.0618C53.5187 20.0829 53.5044 20.1041 53.4901 20.1253C53.4125 20.2403 53.3366 20.3559 53.2626 20.4716V35.561C53.3068 36.9457 53.926 38.3303 55.1491 38.8041C55.4341 38.9145 55.7518 38.9754 56.1027 38.9754V39.416H46.9268V38.9754C47.2869 38.9754 47.6103 38.9145 47.8988 38.8041C49.1857 38.3117 49.777 36.8354 49.8216 35.3958V18.5442C49.8216 17.0546 49.1649 16.1227 47.9614 15.7762C47.652 15.6871 47.3066 15.6367 46.9268 15.6254V15.1849C46.9311 15.1849 46.9354 15.1849 46.9397 15.1849C47.2683 15.1847 47.6375 15.1783 48.0292 15.1608C49.6018 15.0908 51.5363 14.8431 52.6557 14.1079C52.6951 14.082 52.7336 14.0555 52.771 14.0284H53.2626V19.9209C53.4506 19.5536 53.6538 19.2143 53.8694 18.8982C54.6349 17.7759 55.5573 16.9447 56.5149 16.1839C56.5413 16.1629 56.5678 16.142 56.5943 16.1211C58.1236 14.8544 59.926 14.0834 61.783 14.0284H62.22C65.7155 14.0284 68.8834 16.4515 69.2111 20.747V35.561C69.256 36.9655 69.8555 38.3328 71.1006 38.8041C71.369 38.9057 71.6674 38.9657 71.9966 38.9754H72.0512V39.416H62.8754V38.9754C63.2354 38.9754 63.5589 38.9145 63.8474 38.8041ZM72.0061 38.3635H72.6581V40.0279H62.2685V38.3635H62.8754C63.642 38.3635 64.1746 38.0224 64.5434 37.4942C64.9266 36.9455 65.1372 36.1806 65.1633 35.386V21.518C65.1633 20.5341 65.1212 19.5386 64.902 18.6671C64.6852 17.8053 64.3101 17.123 63.6857 16.6854C63.027 16.2608 62.2169 16.017 61.2914 16.017C60.2556 16.017 59.0863 16.3165 57.931 16.7915C56.2768 17.5811 54.9162 19.0555 53.8694 20.6537V35.5508C53.8952 36.3062 54.114 37.0273 54.4941 37.5438C54.8626 38.0446 55.3854 38.3635 56.1027 38.3635H56.7096V40.0279H46.32V38.3635H46.9268C47.6935 38.3635 48.226 38.0224 48.5949 37.4942C48.978 36.9455 49.1887 36.1806 49.2147 35.386V18.5442C49.2147 17.7213 48.9891 17.1816 48.6445 16.839C48.2957 16.4922 47.7391 16.2617 46.909 16.237L46.32 16.2196V14.573H46.9268C47.7577 14.573 48.8439 14.5322 49.8807 14.3734C50.9381 14.2114 51.8556 13.9389 52.4164 13.5318L52.5752 13.4165H53.8694V17.8797C54.5922 16.987 55.4035 16.284 56.2147 15.6435C57.8279 14.3092 59.7537 13.4764 61.7652 13.4167L61.7741 13.4165H62.22C66.0122 13.4165 69.4626 16.0656 69.8162 20.7001L69.818 20.7235V35.5509C69.8438 36.312 70.0518 37.0198 70.4185 37.5276C70.7718 38.0166 71.2824 38.3397 72.0061 38.3635ZM88.9344 38.1983V39.8627H78.5447V38.1983H79.1516C79.9182 38.1983 80.4508 37.8572 80.8197 37.329C81.2028 36.7803 81.4134 36.0154 81.4395 35.2208V1.26153C81.4141 0.471455 81.1807 -0.0396849 80.841 -0.358385C80.496 -0.682135 79.9536 -0.889705 79.1516 -0.889705H78.5447V-2.60914H79.1516C80.2179 -2.60914 81.1174 -2.66262 81.9588 -2.76809C83.2289 -2.98256 84.1098 -3.29362 84.6591 -3.66286L84.812 -3.76562H86.0942V35.3856C86.12 36.1409 86.3388 36.8621 86.7189 37.3786C87.0874 37.8794 87.6102 38.1983 88.3275 38.1983H88.9344ZM85.4873 35.3958C85.5316 36.7805 86.1508 38.1651 87.3739 38.6389C87.6589 38.7493 87.9766 38.8102 88.3275 38.8102V39.2508H79.1516V38.8102C79.5117 38.8102 79.8351 38.7493 80.1236 38.6389C81.4105 38.1465 82.0018 36.6702 82.0464 35.2306V1.25194C82.0022 -0.219125 81.3138 -1.11285 80.0971 -1.40002C79.8107 -1.46762 79.4951 -1.5016 79.1516 -1.5016V-1.99725C79.5011 -1.99725 79.8338 -2.00289 80.1533 -2.01416C80.8325 -2.03812 81.4521 -2.08755 82.0464 -2.16245C83.2825 -2.37018 84.2272 -2.67585 84.8805 -3.07945C84.92 -3.10386 84.9584 -3.12861 84.9958 -3.15373H85.4873V35.3958ZM94.8214 38.1983H95.4283C96.1641 38.1983 96.698 37.8604 97.069 37.329C97.4533 36.7787 97.6616 36.0144 97.6616 35.2306V18.2137C97.6616 17.4312 97.43 16.9221 97.0904 16.6034C96.7438 16.2782 96.2001 16.0721 95.4283 16.0721H94.8214V14.3527H95.4283C96.4438 14.3527 97.3961 14.2988 98.1804 14.1939C99.5067 13.9792 100.387 13.6675 100.936 13.2989L101.089 13.1962H102.316V35.3756C102.368 36.1419 102.589 36.8636 102.968 37.3786C103.334 37.8763 103.856 38.1983 104.604 38.1983H105.211V39.8627H94.8214V38.1983ZM101.709 35.3958V13.8081H101.272C101.218 13.8446 101.161 13.8804 101.103 13.9155C100.451 14.3027 99.5206 14.5973 98.2684 14.7994C97.7127 14.8741 97.0817 14.9234 96.4093 14.9475C96.0904 14.9589 95.7622 14.9646 95.4283 14.9646V15.4602C95.7611 15.4602 96.0702 15.4942 96.3524 15.5617C97.5525 15.8487 98.2684 16.7425 98.2684 18.2137V35.2306C98.2684 36.6702 97.6489 38.1465 96.3799 38.6389C96.0955 38.7493 95.7784 38.8102 95.4283 38.8102V39.2508H104.604V38.8102C104.243 38.8102 103.919 38.7493 103.63 38.6389C102.39 38.1651 101.798 36.7805 101.709 35.3958ZM127.159 22.9985C127.07 23.0126 126.98 23.0257 126.889 23.0379C126.197 23.1305 125.438 23.1706 124.65 23.195C124.304 23.2056 123.953 23.2133 123.599 23.221C121.629 23.2639 119.57 23.3088 117.931 23.886C117.921 23.8895 117.911 23.8931 117.901 23.8966C117.901 23.8966 117.899 23.8975 117.897 23.898C116.783 24.2922 115.754 24.9893 115.212 26.2011C114.99 26.6969 114.85 27.2787 114.818 27.9613C114.778 27.7288 114.733 27.4046 114.69 27.0334C114.657 26.745 114.624 26.4282 114.593 26.1041C114.504 25.1653 114.436 24.1645 114.436 23.6107C114.588 17.4891 118.442 14.7226 122.265 14.3481C122.569 14.3184 122.873 14.3037 123.175 14.3037C123.193 14.3037 123.211 14.3038 123.229 14.3039C123.298 14.3042 123.367 14.3053 123.436 14.3071C123.44 14.3072 123.444 14.3073 123.448 14.3074C123.53 14.3097 123.612 14.3129 123.694 14.3172C126.281 14.4516 128.65 15.5907 129.674 17.5529C130.111 18.1587 130.384 19.205 130.384 20.0862C130.318 21.9852 129.002 22.7059 127.159 22.9985ZM129.778 20.0754C129.759 20.5667 129.643 20.9287 129.473 21.2046C129.301 21.4826 129.053 21.7083 128.717 21.8927C128.021 22.2748 127.011 22.45 125.757 22.532C125.14 22.5723 124.486 22.5893 123.807 22.6044C123.734 22.606 123.66 22.6076 123.585 22.6093C122.979 22.6225 122.355 22.6361 121.738 22.6656C120.359 22.7316 118.952 22.8786 117.733 23.3078C116.874 23.6065 116.021 24.0825 115.365 24.8396C115.279 24.9383 115.198 25.0412 115.12 25.1483C115.074 24.5405 115.043 23.9792 115.043 23.6184C115.123 20.4651 116.224 18.3073 117.737 16.9336C119.261 15.5492 121.253 14.9156 123.175 14.9156C125.833 14.9156 128.189 16.0209 129.137 17.8379L129.158 17.877L129.184 17.9128C129.523 18.3832 129.775 19.2856 129.778 20.0754ZM127.207 23.6103C127.101 23.6106 126.995 23.6107 126.889 23.6107H124.65C122.256 23.6107 119.809 23.6107 118.062 24.2634L118.061 24.264C118.054 24.2665 118.047 24.269 118.041 24.2715C116.647 24.8155 115.624 25.6952 115.305 27.0642C115.245 27.3226 115.21 27.5986 115.202 27.893C115.201 27.9215 115.201 27.9503 115.201 27.9792C115.201 27.9875 115.201 27.9959 115.201 28.0042C115.201 28.0082 115.201 28.0123 115.201 28.0163C115.201 28.5671 115.31 29.1728 115.474 29.8337C116.73 34.5698 119.625 37.4885 124.267 37.4885C124.595 37.4885 124.977 37.4885 125.305 37.4335C128.6 37.1746 131.727 35.7324 133.426 32.3125C133.896 31.3675 134.256 30.2715 134.481 29.0076H134.972C134.968 29.0365 134.964 29.0654 134.96 29.0943C134.935 29.2702 134.907 29.4453 134.875 29.6195C134.687 30.6496 134.382 31.6484 133.967 32.5907C132.225 36.5453 128.548 39.5077 123.448 39.6363H123.229C116.621 39.6363 111.705 34.4596 111.705 26.7497V26.6396C111.705 19.5246 115.895 14.2485 122.214 13.7384C122.529 13.713 122.849 13.6994 123.175 13.6981C123.193 13.698 123.211 13.6979 123.229 13.6979H123.448C123.536 13.6997 123.624 13.7022 123.711 13.7055C126.344 13.8037 128.811 14.5807 130.767 16.2863C132.132 17.3877 133.607 19.1499 133.607 21.0224C133.607 21.4629 133.552 21.8484 133.388 22.289C132.966 23.4611 130.345 23.6024 127.207 23.6103ZM133.958 22.5012C133.773 23.0095 133.363 23.3403 132.912 23.5584C132.46 23.7767 131.901 23.9156 131.295 24.009C130.082 24.1961 128.522 24.2226 126.889 24.2226H124.65C122.207 24.2226 119.878 24.2313 118.257 24.8433C117.475 25.1487 116.867 25.5508 116.455 26.057C116.051 26.5538 115.807 27.1855 115.807 28.0163C115.807 28.4911 115.902 29.0383 116.061 29.6808C116.669 31.9677 117.657 33.7619 119.006 34.9817C120.346 36.1938 122.082 36.8766 124.267 36.8766C124.607 36.8766 124.936 36.8751 125.205 36.8299L125.231 36.8255L125.258 36.8234C127.272 36.6651 129.18 36.0485 130.699 34.8098C132.211 33.5779 133.387 31.6919 133.883 28.8997L133.973 28.3957H135.668L135.574 29.0908C134.775 34.958 130.36 40.0742 123.463 40.248L123.455 40.2482H123.229C119.761 40.2482 116.715 38.8862 114.542 36.4979C112.371 34.1124 111.098 30.7366 111.098 26.7497V26.6396C111.098 22.7687 112.299 19.3819 114.432 16.9543C116.571 14.5208 119.619 13.086 123.229 13.086H123.454L123.46 13.0862C126.291 13.1433 129.003 13.9434 131.155 15.8157C131.871 16.3945 132.624 17.1523 133.203 18.0248C133.783 18.8983 134.214 19.9248 134.214 21.0224C134.214 21.5232 134.15 21.9824 133.958 22.5012ZM154.512 25.0842L154.514 25.0856C157.326 26.9939 160.244 29.3073 160.244 33.0278V33.0473C160.244 33.3639 160.244 33.7351 160.182 34.1138C159.683 37.5503 156.479 40.0795 151.02 40.193L151.014 40.1931H150.516C149.311 40.1931 148.225 40.0194 147.264 39.7913L147.255 39.7893L147.246 39.787C146.413 39.5629 145.678 39.2981 145.11 39.0934L145.082 39.0836C144.791 38.9789 144.556 38.8945 144.367 38.8356C144.273 38.8065 144.2 38.7865 144.143 38.7742C144.117 38.7684 144.098 38.7652 144.087 38.7634C143.982 38.7791 143.943 38.8149 143.902 38.8778C143.826 38.9946 143.743 39.2336 143.691 39.7039L143.631 40.2482H141.989V30.5435H143.674L143.694 31.1345C143.775 33.505 144.255 35.3213 145.279 36.5429C146.281 37.7394 147.9 38.4737 150.516 38.4737H150.947C152.476 38.4468 153.617 38.081 154.374 37.4452C155.113 36.8244 155.564 35.88 155.589 34.5091V34.4046C155.589 31.4635 153.484 29.7561 150.84 27.9784C150.415 27.7056 149.972 27.4328 149.523 27.156C148.126 26.2953 146.667 25.3966 145.485 24.3447C143.888 22.9229 142.699 21.1442 142.699 18.6543V18.4804L142.7 18.4716C142.761 16.3026 143.845 14.8759 145.416 14.0261C146.944 13.1993 148.918 12.9208 150.844 12.9208C152.872 12.9208 154.87 13.3158 156.278 13.9644C156.584 14.0956 156.828 14.1324 157.016 14.1324C157.234 14.1324 157.279 14.0735 157.3 14.0462C157.352 13.9787 157.423 13.8118 157.448 13.437L157.486 12.8658H159.152V21.3038H157.483L157.448 20.7295C157.246 17.428 154.904 14.5852 151.008 14.5852H150.905C149.714 14.611 148.95 15.0206 148.473 15.5874C147.984 16.1695 147.736 16.9918 147.736 17.9384V18.4664C147.835 19.7502 148.635 20.8436 149.915 21.9228C150.86 22.7189 151.989 23.4472 153.172 24.2102C153.613 24.4945 154.061 24.7836 154.51 25.0828L154.512 25.0842ZM147.13 18.4891V17.9384C147.13 16.2544 147.837 14.7488 149.508 14.1962C149.899 14.0667 150.343 13.9896 150.844 13.9747C150.862 13.9741 150.88 13.9737 150.898 13.9733H151.008C151.948 13.9733 152.805 14.1262 153.574 14.403C155.974 15.2676 157.5 17.3413 157.938 19.7396C157.995 20.0522 158.034 20.3703 158.053 20.6919H158.545V13.4777H158.053C158.037 13.7272 158 13.9415 157.938 14.1192C157.794 14.5297 157.511 14.7443 157.016 14.7443C156.742 14.7443 156.415 14.6892 156.032 14.524C155.391 14.2278 154.607 13.9842 153.742 13.8126C152.888 13.6431 151.956 13.5439 151.008 13.5336C150.971 13.5332 150.935 13.533 150.898 13.5328C150.895 13.5328 150.892 13.5328 150.889 13.5328C150.874 13.5327 150.859 13.5327 150.844 13.5327C150.355 13.5327 149.868 13.5513 149.39 13.5919C146.185 13.8649 143.401 15.1343 143.306 18.4891V18.6543C143.306 22.6074 146.571 24.6192 149.803 26.6108C150.263 26.8943 150.722 27.1774 151.171 27.4656C153.793 29.2279 156.196 31.1003 156.196 34.4046V34.5147C156.155 36.802 155.024 38.21 153.084 38.786C152.47 38.9685 151.775 39.0675 151.008 39.0845C151.004 39.0846 151.001 39.0847 150.997 39.0847C150.983 39.085 150.968 39.0853 150.953 39.0856H150.516C149.367 39.0856 148.381 38.9492 147.537 38.6887C147.532 38.6872 147.527 38.6857 147.522 38.6841C147.184 38.579 146.869 38.4538 146.576 38.3094C144.511 37.2928 143.528 35.3242 143.203 32.6813C143.143 32.1949 143.106 31.6857 143.088 31.1554H142.596V39.6363H143.088C143.115 39.3883 143.153 39.1748 143.203 38.9932C143.354 38.4487 143.62 38.1907 144.071 38.1494C144.292 38.1494 144.724 38.3047 145.308 38.5153C145.615 38.6257 145.964 38.7514 146.347 38.8778C146.676 38.9863 147.029 39.0953 147.403 39.1957C148.331 39.416 149.369 39.5812 150.516 39.5812H151.008C151.804 39.5647 152.544 39.4959 153.23 39.3806C157.105 38.7291 159.211 36.5928 159.583 34.0191C159.637 33.6886 159.637 33.3582 159.637 33.0278C159.637 29.6685 157.016 27.5207 154.175 25.5932C153.746 25.3071 153.31 25.0258 152.876 24.7459C150.052 22.925 147.319 21.1622 147.13 18.4891ZM180.447 35.0359L181.823 36.2249L181.628 36.6459C180.739 38.5678 178.465 39.9145 175.519 39.9727L175.513 39.9728H175.507C174.486 39.9728 173.54 39.8594 172.69 39.5547C170.491 38.8325 168.892 37.1002 168.892 34.7901V34.6799C168.892 31.5975 168.879 28.5149 168.865 25.4308V25.423C168.851 22.3418 168.838 19.2591 168.838 16.1761C168.838 15.695 168.696 15.5084 168.515 15.3935C168.266 15.2362 167.815 15.1359 167.041 15.1359H166.107V13.3614H167.314C167.814 13.3614 168.364 13.3116 168.861 13.2137C170.745 12.6327 171.606 11.2249 171.905 9.46419L171.992 8.9557H173.492V13.4165H179.282V15.1359H173.492V32.7967C173.548 34.3988 173.703 35.5888 174.201 36.4031C174.655 37.146 175.468 37.6788 177.16 37.7578H177.255C178.541 37.7578 179.68 36.9698 180.133 35.8294L180.447 35.0359ZM177.146 38.3697C173.486 38.2044 172.995 36.0016 172.886 32.8075V14.524H178.675V14.0284H172.886V9.5676H172.503C172.448 9.8929 172.374 10.2104 172.279 10.5165C171.809 12.0245 170.824 13.2588 169.008 13.8081C168.644 13.8813 168.257 13.9302 167.878 13.9547C167.687 13.9671 167.497 13.9733 167.314 13.9733H166.714V14.524H167.041C167.135 14.524 167.226 14.5254 167.314 14.5282C167.509 14.5343 167.691 14.5475 167.859 14.5689C168.906 14.7018 169.445 15.1496 169.445 16.1761C169.445 19.2601 169.458 22.3441 169.472 25.428C169.486 28.512 169.499 31.5959 169.499 34.6799V34.7901C169.499 36.7726 170.865 38.3146 172.886 38.9754C173.65 39.2508 174.524 39.3609 175.507 39.3609C176.485 39.3416 177.368 39.1731 178.136 38.891C179.556 38.3694 180.582 37.4594 181.078 36.3871L180.696 36.0567C180.679 36.099 180.662 36.1409 180.643 36.1824C180.576 36.3337 180.5 36.4793 180.414 36.6185C179.879 37.4832 178.992 38.0996 177.974 38.2997C177.741 38.3456 177.5 38.3697 177.255 38.3697H177.146ZM102.972 3.1794C102.972 4.9576 101.49 6.37959 99.7978 6.37959C98.0425 6.37959 96.6238 4.9492 96.6238 3.1794C96.6238 1.45619 98.051 0.0342548 99.7978 0.0342548C101.481 0.0342548 102.972 1.44786 102.972 3.1794ZM102.365 3.1794C102.365 4.6113 101.163 5.7677 99.7978 5.7677C98.3777 5.7677 97.2307 4.6113 97.2307 3.1794C97.2307 1.80265 98.3777 0.646155 99.7978 0.646155C101.163 0.646155 102.365 1.80265 102.365 3.1794Z" fill="white"/>
<path d="M20.7563 40.3575C32.6084 40.1923 39.818 31.0505 39.818 21.3581V20.5871C39.3811 9.2425 33.0454 1.03694 20.7563 0.816662H20.4286C9.06795 0.816662 1.476 9.1874 1.42139 20.5871V20.7523C1.42139 32.4824 9.39566 40.3575 20.2647 40.3575H20.7563ZM9.12257 5.8832C11.5258 2.90935 14.8575 1.42244 19.1177 1.42244C22.4494 1.42244 25.3442 2.30357 27.802 4.0108C30.2598 5.718 32.1715 8.1411 33.5369 11.225C34.9024 14.309 35.6124 17.8335 35.6124 21.7986C35.6124 25.5434 34.957 28.7376 33.7554 31.436C32.4992 34.1345 30.8606 36.1721 28.7305 37.604C26.6004 38.9807 24.2518 39.6966 21.5755 39.6966C18.4623 39.6966 15.6768 38.7604 13.2736 36.833C10.8157 34.9606 8.90409 32.4273 7.53863 29.123C6.17318 25.8739 5.51776 22.2392 5.51776 18.2741C5.51776 13.0424 6.71936 8.9121 9.12257 5.8832ZM65.7707 35.4011C65.7161 37.1634 64.8422 38.9807 62.8759 38.9807V39.4213H72.0518V38.9807H71.9972C70.1401 38.9257 69.2663 37.2735 69.2116 35.5663V20.7523C68.8839 16.4568 65.7161 14.0337 62.2205 14.0337H61.7836C59.9265 14.0887 58.1241 14.8597 56.5948 16.1263C55.3386 17.1176 54.137 18.219 53.2631 19.9262V14.0337H52.7715C51.4061 15.0249 48.6205 15.1901 46.9274 15.1901V15.6307C48.7844 15.6858 49.8221 16.677 49.8221 18.5495V35.4011C49.7675 37.1634 48.8936 38.9807 46.9274 38.9807V39.4213H56.1033V38.9807C54.2462 38.9807 53.3177 37.2735 53.2631 35.5663V20.4769C54.3555 18.7697 55.8302 17.1176 57.6872 16.2365C58.8888 15.7408 60.145 15.4104 61.292 15.4104C62.3297 15.4104 63.2582 15.6858 64.0229 16.1814C65.6068 17.2828 65.7707 19.5407 65.7707 21.5233V35.4011ZM88.328 38.8155C86.471 38.8155 85.5425 37.1083 85.4879 35.4011V-3.14844H84.9963C84.3409 -2.70787 83.3578 -2.37745 82.0469 -2.15716C81.173 -2.04702 80.2445 -1.99195 79.1522 -1.99195V-1.49631C80.9546 -1.49631 81.9923 -0.560107 82.0469 1.25722V35.2359C81.9923 36.9982 81.1184 38.8155 79.1522 38.8155V39.2561H88.328V38.8155ZM99.7983 5.773C101.164 5.773 102.365 4.6165 102.365 3.1847C102.365 1.80794 101.164 0.651453 99.7983 0.651453C98.3782 0.651453 97.2312 1.80794 97.2312 3.1847C97.2312 4.6165 98.3782 5.773 99.7983 5.773ZM98.269 35.2359C98.269 36.9982 97.3405 38.8155 95.4288 38.8155V39.2561H104.605V38.8155C102.693 38.8155 101.819 37.1083 101.71 35.4011V13.8134H101.273C100.618 14.2539 99.6344 14.5844 98.269 14.8046C97.4497 14.9148 96.4666 14.9699 95.4288 14.9699V15.4655C97.1766 15.4655 98.269 16.4017 98.269 18.219V35.2359ZM118.041 24.2768C119.789 23.616 122.247 23.616 124.65 23.616H126.889C130.166 23.616 132.952 23.5058 133.389 22.2943C133.553 21.8537 133.607 21.4682 133.607 21.0276C133.607 19.1552 132.133 17.393 130.767 16.2916C128.746 14.5293 126.179 13.7583 123.448 13.7032H123.23C116.348 13.7032 111.706 19.1552 111.706 26.6449V26.755C111.706 34.4649 116.621 39.6416 123.23 39.6416H123.448C130.003 39.4764 134.208 34.6301 134.973 29.0129H134.481C133.444 34.8504 129.511 37.1083 125.305 37.4387C124.978 37.4938 124.595 37.4938 124.268 37.4938C119.625 37.4938 116.73 34.5751 115.474 29.839C115.31 29.1781 115.201 28.5723 115.201 28.0216C115.201 26.0942 116.348 24.9377 118.041 24.2768ZM114.819 27.9666C114.655 27.0304 114.436 24.6072 114.436 23.616C114.6 17.0075 119.079 14.309 123.175 14.309C125.961 14.309 128.583 15.4655 129.675 17.5582C130.112 18.164 130.385 19.2103 130.385 20.0914C130.221 24.7725 122.465 22.2943 117.932 23.8913C116.348 24.442 114.928 25.5985 114.819 27.9666ZM154.176 25.5985C150.953 23.4508 147.349 21.5784 147.13 18.4944V17.9437C147.13 15.851 148.223 14.0337 150.899 13.9786H151.008C155.268 13.9786 157.835 17.1176 158.054 20.6972H158.545V13.4829H158.054C157.999 14.309 157.726 14.7496 157.016 14.7496C156.743 14.7496 156.415 14.6945 156.033 14.5293C154.722 13.9235 152.81 13.538 150.844 13.538C147.076 13.538 143.416 14.6394 143.307 18.4944V18.6596C143.307 23.1754 147.567 25.158 151.172 27.4709C153.794 29.2332 156.197 31.1056 156.197 34.4098V34.52C156.142 37.5489 154.176 39.0358 150.953 39.0909H150.517C145.055 39.0909 143.252 36.0069 143.088 31.1607H142.597V39.6416H143.088C143.198 38.6503 143.471 38.2097 144.072 38.1547C144.508 38.1547 145.765 38.7604 147.403 39.201C148.332 39.4213 149.37 39.5865 150.517 39.5865H151.008C156.306 39.4764 159.146 37.0532 159.583 34.0244C159.638 33.6939 159.638 33.3635 159.638 33.0331C159.638 29.6738 157.016 27.526 154.176 25.5985ZM180.697 36.062C180.15 37.4387 178.785 38.3749 177.256 38.3749H177.146C173.487 38.2097 172.995 36.0069 172.886 32.8128V14.5293H178.676V14.0337H172.886V9.5729H172.504C172.176 11.5004 171.193 13.1525 169.008 13.8134C168.462 13.9235 167.861 13.9786 167.315 13.9786H166.714V14.5293H167.042C168.626 14.5293 169.445 14.9148 169.445 16.1814C169.445 22.3493 169.5 28.5173 169.5 34.6852V34.7953C169.5 36.7779 170.865 38.3199 172.886 38.9807C173.651 39.2561 174.525 39.3662 175.508 39.3662C178.293 39.3111 180.314 38.0445 181.079 36.3924L180.697 36.062Z" fill="white"/>
</g>
<mask id="mask3_26203_144649" style="mask-type:luminance" maskUnits="userSpaceOnUse" x="0" y="0" width="15" height="41">
<path d="M14.687 0.09375H0V40.479H14.687V0.09375Z" fill="white"/>
</mask>
<g mask="url(#mask3_26203_144649)">
<path fill-rule="evenodd" clip-rule="evenodd" d="M20.7599 40.9641H20.2641C14.6803 40.9641 9.80929 38.9387 6.33402 35.3776C2.85871 31.8163 0.813965 26.7554 0.813965 20.747V20.5788C0.841938 14.7418 2.8013 9.6433 6.24536 5.9996C9.6924 2.35268 14.5931 0.199465 20.428 0.199465H20.7611L20.7665 0.199565C27.0509 0.312215 31.8749 2.47249 35.1788 6.1118C38.4744 9.7419 40.2014 14.7813 40.4239 20.558L40.4244 20.5699V21.3528C40.4244 31.3528 32.9743 40.7938 20.7641 40.964L20.7599 40.9641ZM1.42083 20.5818C1.4602 12.3656 5.41498 5.7228 11.8742 2.6534C14.0276 1.63013 16.4593 1.00401 19.1172 0.849195C19.3564 0.835255 19.5975 0.825135 19.8404 0.818895C20.0351 0.813885 20.231 0.811365 20.428 0.811365H20.7557C33.0448 1.03166 39.3805 9.2372 39.8175 20.5818V21.3528C39.8175 29.7396 34.4195 37.714 25.2865 39.8174C24.2672 40.0521 23.2014 40.2137 22.0914 40.2946C21.653 40.3265 21.2078 40.3459 20.7557 40.3522H20.2641C9.39511 40.3522 1.42083 32.4771 1.42083 20.747V20.5818ZM25.151 39.2203C26.4159 38.87 27.6035 38.3268 28.73 37.5987C30.8601 36.1668 32.4986 34.1292 33.7549 31.4307C34.9565 28.7323 35.6119 25.5382 35.6119 21.7933C35.6119 17.8282 34.9018 14.3037 33.5364 11.2198C32.1709 8.1358 30.2593 5.7127 27.8015 4.0055C25.5223 2.42237 22.8674 1.5496 19.8367 1.43109C19.5992 1.4218 19.3593 1.41714 19.1172 1.41714C16.4287 1.41714 14.11 2.00928 12.1611 3.19359C11.0217 3.88589 10.0087 4.7807 9.12201 5.8779C6.71881 8.9068 5.51721 13.0371 5.51721 18.2688C5.51721 22.2339 6.17263 25.8686 7.53808 29.1178C8.90354 32.422 9.89141 34.7968 12.3492 36.6692C12.5625 36.8403 13.381 38.6627 13.4563 39.0069C13.4563 39.1051 13.6441 39.279 13.6441 39.279L14.0253 39.4059L14.4167 39.5268C15.4891 40.0613 19.1028 39.6914 21.575 39.6914C21.7371 39.6914 21.898 39.6887 22.0577 39.6835C23.1405 39.648 24.169 39.4923 25.151 39.2203ZM9.59421 6.26229C11.8673 3.45069 15.0157 2.02905 19.1172 2.02905C22.3369 2.02905 25.1093 2.87858 27.4572 4.5094C29.8105 6.144 31.6555 8.4727 32.9822 11.4692C34.3086 14.4649 35.005 17.9028 35.005 21.7933C35.005 25.4635 34.3633 28.5686 33.2033 31.1755C31.9861 33.7884 30.4159 35.7287 28.3978 37.0865C26.6396 38.2219 17.256 40.784 14.0277 40.0477C13.9625 40.0274 13.8745 39.9995 13.8745 39.9995C13.9722 39.4521 13.654 38.6009 13.4581 38.1396C12.7553 36.4851 11.8651 34.5165 11.0027 33.5524C9.60884 31.9939 9.43815 31.7167 8.09828 28.8824L8.09686 28.879C6.76815 25.7173 6.12408 22.1659 6.12408 18.2688C6.12408 13.129 7.304 9.14999 9.59421 6.26229ZM63.8474 38.8041C65.1342 38.3117 65.7255 36.8354 65.7701 35.3958V21.518C65.7701 19.5354 65.6063 17.2775 64.0224 16.1761C63.2577 15.6805 62.3292 15.4051 61.2914 15.4051C60.1445 15.4051 58.8882 15.7356 57.6866 16.2312C57.404 16.3653 57.1302 16.5173 56.8653 16.6846C55.6933 17.4247 54.6947 18.4649 53.8694 19.5866C53.788 19.6974 53.7082 19.8089 53.6301 19.9209C53.5975 19.9678 53.5652 20.0147 53.5331 20.0618C53.5187 20.0829 53.5044 20.1041 53.4901 20.1253C53.4125 20.2403 53.3366 20.3559 53.2626 20.4716V35.561C53.3068 36.9457 53.926 38.3303 55.1491 38.8041C55.4341 38.9145 55.7518 38.9754 56.1027 38.9754V39.416H46.9268V38.9754C47.2869 38.9754 47.6103 38.9145 47.8988 38.8041C49.1857 38.3117 49.777 36.8354 49.8216 35.3958V18.5442C49.8216 17.0546 49.1649 16.1227 47.9614 15.7762C47.652 15.6871 47.3066 15.6367 46.9268 15.6254V15.1849C46.9311 15.1849 46.9354 15.1849 46.9397 15.1849C47.2683 15.1847 47.6375 15.1783 48.0292 15.1608C49.6018 15.0908 51.5363 14.8431 52.6557 14.1079C52.6951 14.082 52.7336 14.0555 52.771 14.0284H53.2626V19.9209C53.4506 19.5536 53.6538 19.2143 53.8694 18.8982C54.6349 17.7759 55.5573 16.9447 56.5149 16.1839C56.5413 16.1629 56.5678 16.142 56.5943 16.1211C58.1236 14.8544 59.926 14.0834 61.783 14.0284H62.22C65.7155 14.0284 68.8834 16.4515 69.2111 20.747V35.561C69.256 36.9655 69.8555 38.3328 71.1006 38.8041C71.369 38.9057 71.6674 38.9657 71.9966 38.9754H72.0512V39.416H62.8754V38.9754C63.2354 38.9754 63.5589 38.9145 63.8474 38.8041ZM72.0061 38.3635H72.6581V40.0279H62.2685V38.3635H62.8754C63.642 38.3635 64.1746 38.0224 64.5434 37.4942C64.9266 36.9455 65.1372 36.1806 65.1633 35.386V21.518C65.1633 20.5341 65.1212 19.5386 64.902 18.6671C64.6852 17.8053 64.3101 17.123 63.6857 16.6854C63.027 16.2608 62.2169 16.017 61.2914 16.017C60.2556 16.017 59.0863 16.3165 57.931 16.7915C56.2768 17.5811 54.9162 19.0555 53.8694 20.6537V35.5508C53.8952 36.3062 54.114 37.0273 54.4941 37.5438C54.8626 38.0446 55.3854 38.3635 56.1027 38.3635H56.7096V40.0279H46.32V38.3635H46.9268C47.6935 38.3635 48.226 38.0224 48.5949 37.4942C48.978 36.9455 49.1887 36.1806 49.2147 35.386V18.5442C49.2147 17.7213 48.9891 17.1816 48.6445 16.839C48.2957 16.4922 47.7391 16.2617 46.909 16.237L46.32 16.2196V14.573H46.9268C47.7577 14.573 48.8439 14.5322 49.8807 14.3734C50.9381 14.2114 51.8556 13.9389 52.4164 13.5318L52.5752 13.4165H53.8694V17.8797C54.5922 16.987 55.4035 16.284 56.2147 15.6435C57.8279 14.3092 59.7537 13.4764 61.7652 13.4167L61.7741 13.4165H62.22C66.0122 13.4165 69.4626 16.0656 69.8162 20.7001L69.818 20.7235V35.5509C69.8438 36.312 70.0518 37.0198 70.4185 37.5276C70.7718 38.0166 71.2824 38.3397 72.0061 38.3635ZM88.9344 38.1983V39.8627H78.5447V38.1983H79.1516C79.9182 38.1983 80.4508 37.8572 80.8197 37.329C81.2028 36.7803 81.4134 36.0154 81.4395 35.2208V1.26153C81.4141 0.471455 81.1807 -0.0396849 80.841 -0.358385C80.496 -0.682135 79.9536 -0.889705 79.1516 -0.889705H78.5447V-2.60914H79.1516C80.2179 -2.60914 81.1174 -2.66262 81.9588 -2.76809C83.2289 -2.98256 84.1098 -3.29362 84.6591 -3.66286L84.812 -3.76562H86.0942V35.3856C86.12 36.1409 86.3388 36.8621 86.7189 37.3786C87.0874 37.8794 87.6102 38.1983 88.3275 38.1983H88.9344ZM85.4873 35.3958C85.5316 36.7805 86.1508 38.1651 87.3739 38.6389C87.6589 38.7493 87.9766 38.8102 88.3275 38.8102V39.2508H79.1516V38.8102C79.5117 38.8102 79.8351 38.7493 80.1236 38.6389C81.4105 38.1465 82.0018 36.6702 82.0464 35.2306V1.25194C82.0022 -0.219125 81.3138 -1.11285 80.0971 -1.40002C79.8107 -1.46762 79.4951 -1.5016 79.1516 -1.5016V-1.99725C79.5011 -1.99725 79.8338 -2.00289 80.1533 -2.01416C80.8325 -2.03812 81.4521 -2.08755 82.0464 -2.16245C83.2825 -2.37018 84.2272 -2.67585 84.8805 -3.07945C84.92 -3.10386 84.9584 -3.12861 84.9958 -3.15373H85.4873V35.3958ZM94.8214 38.1983H95.4283C96.1641 38.1983 96.698 37.8604 97.069 37.329C97.4533 36.7787 97.6616 36.0144 97.6616 35.2306V18.2137C97.6616 17.4312 97.43 16.9221 97.0904 16.6034C96.7438 16.2782 96.2001 16.0721 95.4283 16.0721H94.8214V14.3527H95.4283C96.4438 14.3527 97.3961 14.2988 98.1804 14.1939C99.5067 13.9792 100.387 13.6675 100.936 13.2989L101.089 13.1962H102.316V35.3756C102.368 36.1419 102.589 36.8636 102.968 37.3786C103.334 37.8763 103.856 38.1983 104.604 38.1983H105.211V39.8627H94.8214V38.1983ZM101.709 35.3958V13.8081H101.272C101.218 13.8446 101.161 13.8804 101.103 13.9155C100.451 14.3027 99.5206 14.5973 98.2684 14.7994C97.7127 14.8741 97.0817 14.9234 96.4093 14.9475C96.0904 14.9589 95.7622 14.9646 95.4283 14.9646V15.4602C95.7611 15.4602 96.0702 15.4942 96.3524 15.5617C97.5525 15.8487 98.2684 16.7425 98.2684 18.2137V35.2306C98.2684 36.6702 97.6489 38.1465 96.3799 38.6389C96.0955 38.7493 95.7784 38.8102 95.4283 38.8102V39.2508H104.604V38.8102C104.243 38.8102 103.919 38.7493 103.63 38.6389C102.39 38.1651 101.798 36.7805 101.709 35.3958ZM127.159 22.9985C127.07 23.0126 126.98 23.0257 126.889 23.0379C126.197 23.1305 125.438 23.1706 124.65 23.195C124.304 23.2056 123.953 23.2133 123.599 23.221C121.629 23.2639 119.57 23.3088 117.931 23.886C117.921 23.8895 117.911 23.8931 117.901 23.8966C117.901 23.8966 117.899 23.8975 117.897 23.898C116.783 24.2922 115.754 24.9893 115.212 26.2011C114.99 26.6969 114.85 27.2787 114.818 27.9613C114.778 27.7288 114.733 27.4046 114.69 27.0334C114.657 26.745 114.624 26.4282 114.593 26.1041C114.504 25.1653 114.436 24.1645 114.436 23.6107C114.588 17.4891 118.442 14.7226 122.265 14.3481C122.569 14.3184 122.873 14.3037 123.175 14.3037C123.193 14.3037 123.211 14.3038 123.229 14.3039C123.298 14.3042 123.367 14.3053 123.436 14.3071C123.44 14.3072 123.444 14.3073 123.448 14.3074C123.53 14.3097 123.612 14.3129 123.694 14.3172C126.281 14.4516 128.65 15.5907 129.674 17.5529C130.111 18.1587 130.384 19.205 130.384 20.0862C130.318 21.9852 129.002 22.7059 127.159 22.9985ZM129.778 20.0754C129.759 20.5667 129.643 20.9287 129.473 21.2046C129.301 21.4826 129.053 21.7083 128.717 21.8927C128.021 22.2748 127.011 22.45 125.757 22.532C125.14 22.5723 124.486 22.5893 123.807 22.6044C123.734 22.606 123.66 22.6076 123.585 22.6093C122.979 22.6225 122.355 22.6361 121.738 22.6656C120.359 22.7316 118.952 22.8786 117.733 23.3078C116.874 23.6065 116.021 24.0825 115.365 24.8396C115.279 24.9383 115.198 25.0412 115.12 25.1483C115.074 24.5405 115.043 23.9792 115.043 23.6184C115.123 20.4651 116.224 18.3073 117.737 16.9336C119.261 15.5492 121.253 14.9156 123.175 14.9156C125.833 14.9156 128.189 16.0209 129.137 17.8379L129.158 17.877L129.184 17.9128C129.523 18.3832 129.775 19.2856 129.778 20.0754ZM127.207 23.6103C127.101 23.6106 126.995 23.6107 126.889 23.6107H124.65C122.256 23.6107 119.809 23.6107 118.062 24.2634L118.061 24.264C118.054 24.2665 118.047 24.269 118.041 24.2715C116.647 24.8155 115.624 25.6952 115.305 27.0642C115.245 27.3226 115.21 27.5986 115.202 27.893C115.201 27.9215 115.201 27.9503 115.201 27.9792C115.201 27.9875 115.201 27.9959 115.201 28.0042C115.201 28.0082 115.201 28.0123 115.201 28.0163C115.201 28.5671 115.31 29.1728 115.474 29.8337C116.73 34.5698 119.625 37.4885 124.267 37.4885C124.595 37.4885 124.977 37.4885 125.305 37.4335C128.6 37.1746 131.727 35.7324 133.426 32.3125C133.896 31.3675 134.256 30.2715 134.481 29.0076H134.972C134.968 29.0365 134.964 29.0654 134.96 29.0943C134.935 29.2702 134.907 29.4453 134.875 29.6195C134.687 30.6496 134.382 31.6484 133.967 32.5907C132.225 36.5453 128.548 39.5077 123.448 39.6363H123.229C116.621 39.6363 111.705 34.4596 111.705 26.7497V26.6396C111.705 19.5246 115.895 14.2485 122.214 13.7384C122.529 13.713 122.849 13.6994 123.175 13.6981C123.193 13.698 123.211 13.6979 123.229 13.6979H123.448C123.536 13.6997 123.624 13.7022 123.711 13.7055C126.344 13.8037 128.811 14.5807 130.767 16.2863C132.132 17.3877 133.607 19.1499 133.607 21.0224C133.607 21.4629 133.552 21.8484 133.388 22.289C132.966 23.4611 130.345 23.6024 127.207 23.6103ZM133.958 22.5012C133.773 23.0095 133.363 23.3403 132.912 23.5584C132.46 23.7767 131.901 23.9156 131.295 24.009C130.082 24.1961 128.522 24.2226 126.889 24.2226H124.65C122.207 24.2226 119.878 24.2313 118.257 24.8433C117.475 25.1487 116.867 25.5508 116.455 26.057C116.051 26.5538 115.807 27.1855 115.807 28.0163C115.807 28.4911 115.902 29.0383 116.061 29.6808C116.669 31.9677 117.657 33.7619 119.006 34.9817C120.346 36.1938 122.082 36.8766 124.267 36.8766C124.607 36.8766 124.936 36.8751 125.205 36.8299L125.231 36.8255L125.258 36.8234C127.272 36.6651 129.18 36.0485 130.699 34.8098C132.211 33.5779 133.387 31.6919 133.883 28.8997L133.973 28.3957H135.668L135.574 29.0908C134.775 34.958 130.36 40.0742 123.463 40.248L123.455 40.2482H123.229C119.761 40.2482 116.715 38.8862 114.542 36.4979C112.371 34.1124 111.098 30.7366 111.098 26.7497V26.6396C111.098 22.7687 112.299 19.3819 114.432 16.9543C116.571 14.5208 119.619 13.086 123.229 13.086H123.454L123.46 13.0862C126.291 13.1433 129.003 13.9434 131.155 15.8157C131.871 16.3945 132.624 17.1523 133.203 18.0248C133.783 18.8983 134.214 19.9248 134.214 21.0224C134.214 21.5232 134.15 21.9824 133.958 22.5012ZM154.512 25.0842L154.514 25.0856C157.326 26.9939 160.244 29.3073 160.244 33.0278V33.0473C160.244 33.3639 160.244 33.7351 160.182 34.1138C159.683 37.5503 156.479 40.0795 151.02 40.193L151.014 40.1931H150.516C149.311 40.1931 148.225 40.0194 147.264 39.7913L147.255 39.7893L147.246 39.787C146.413 39.5629 145.678 39.2981 145.11 39.0934L145.082 39.0836C144.791 38.9789 144.556 38.8945 144.367 38.8356C144.273 38.8065 144.2 38.7865 144.143 38.7742C144.117 38.7684 144.098 38.7652 144.087 38.7634C143.982 38.7791 143.943 38.8149 143.902 38.8778C143.826 38.9946 143.743 39.2336 143.691 39.7039L143.631 40.2482H141.989V30.5435H143.674L143.694 31.1345C143.775 33.505 144.255 35.3213 145.279 36.5429C146.281 37.7394 147.9 38.4737 150.516 38.4737H150.947C152.476 38.4468 153.617 38.081 154.374 37.4452C155.113 36.8244 155.564 35.88 155.589 34.5091V34.4046C155.589 31.4635 153.484 29.7561 150.84 27.9784C150.415 27.7056 149.972 27.4328 149.523 27.156C148.126 26.2953 146.667 25.3966 145.485 24.3447C143.888 22.9229 142.699 21.1442 142.699 18.6543V18.4804L142.7 18.4716C142.761 16.3026 143.845 14.8759 145.416 14.0261C146.944 13.1993 148.918 12.9208 150.844 12.9208C152.872 12.9208 154.87 13.3158 156.278 13.9644C156.584 14.0956 156.828 14.1324 157.016 14.1324C157.234 14.1324 157.279 14.0735 157.3 14.0462C157.352 13.9787 157.423 13.8118 157.448 13.437L157.486 12.8658H159.152V21.3038H157.483L157.448 20.7295C157.246 17.428 154.904 14.5852 151.008 14.5852H150.905C149.714 14.611 148.95 15.0206 148.473 15.5874C147.984 16.1695 147.736 16.9918 147.736 17.9384V18.4664C147.835 19.7502 148.635 20.8436 149.915 21.9228C150.86 22.7189 151.989 23.4472 153.172 24.2102C153.613 24.4945 154.061 24.7836 154.51 25.0828L154.512 25.0842ZM147.13 18.4891V17.9384C147.13 16.2544 147.837 14.7488 149.508 14.1962C149.899 14.0667 150.343 13.9896 150.844 13.9747C150.862 13.9741 150.88 13.9737 150.898 13.9733H151.008C151.948 13.9733 152.805 14.1262 153.574 14.403C155.974 15.2676 157.5 17.3413 157.938 19.7396C157.995 20.0522 158.034 20.3703 158.053 20.6919H158.545V13.4777H158.053C158.037 13.7272 158 13.9415 157.938 14.1192C157.794 14.5297 157.511 14.7443 157.016 14.7443C156.742 14.7443 156.415 14.6892 156.032 14.524C155.391 14.2278 154.607 13.9842 153.742 13.8126C152.888 13.6431 151.956 13.5439 151.008 13.5336C150.971 13.5332 150.935 13.533 150.898 13.5328C150.895 13.5328 150.892 13.5328 150.889 13.5328C150.874 13.5327 150.859 13.5327 150.844 13.5327C150.355 13.5327 149.868 13.5513 149.39 13.5919C146.185 13.8649 143.401 15.1343 143.306 18.4891V18.6543C143.306 22.6074 146.571 24.6192 149.803 26.6108C150.263 26.8943 150.722 27.1774 151.171 27.4656C153.793 29.2279 156.196 31.1003 156.196 34.4046V34.5147C156.155 36.802 155.024 38.21 153.084 38.786C152.47 38.9685 151.775 39.0675 151.008 39.0845C151.004 39.0846 151.001 39.0847 150.997 39.0847C150.983 39.085 150.968 39.0853 150.953 39.0856H150.516C149.367 39.0856 148.381 38.9492 147.537 38.6887C147.532 38.6872 147.527 38.6857 147.522 38.6841C147.184 38.579 146.869 38.4538 146.576 38.3094C144.511 37.2928 143.528 35.3242 143.203 32.6813C143.143 32.1949 143.106 31.6857 143.088 31.1554H142.596V39.6363H143.088C143.115 39.3883 143.153 39.1748 143.203 38.9932C143.354 38.4487 143.62 38.1907 144.071 38.1494C144.292 38.1494 144.724 38.3047 145.308 38.5153C145.615 38.6257 145.964 38.7514 146.347 38.8778C146.676 38.9863 147.029 39.0953 147.403 39.1957C148.331 39.416 149.369 39.5812 150.516 39.5812H151.008C151.804 39.5647 152.544 39.4959 153.23 39.3806C157.105 38.7291 159.211 36.5928 159.583 34.0191C159.637 33.6886 159.637 33.3582 159.637 33.0278C159.637 29.6685 157.016 27.5207 154.175 25.5932C153.746 25.3071 153.31 25.0258 152.876 24.7459C150.052 22.925 147.319 21.1622 147.13 18.4891ZM180.447 35.0359L181.823 36.2249L181.628 36.6459C180.739 38.5678 178.465 39.9145 175.519 39.9727L175.513 39.9728H175.507C174.486 39.9728 173.54 39.8594 172.69 39.5547C170.491 38.8325 168.892 37.1002 168.892 34.7901V34.6799C168.892 31.5975 168.879 28.5149 168.865 25.4308V25.423C168.851 22.3418 168.838 19.2591 168.838 16.1761C168.838 15.695 168.696 15.5084 168.515 15.3935C168.266 15.2362 167.815 15.1359 167.041 15.1359H166.107V13.3614H167.314C167.814 13.3614 168.364 13.3116 168.861 13.2137C170.745 12.6327 171.606 11.2249 171.905 9.46419L171.992 8.9557H173.492V13.4165H179.282V15.1359H173.492V32.7967C173.548 34.3988 173.703 35.5888 174.201 36.4031C174.655 37.146 175.468 37.6788 177.16 37.7578H177.255C178.541 37.7578 179.68 36.9698 180.133 35.8294L180.447 35.0359ZM177.146 38.3697C173.486 38.2044 172.995 36.0016 172.886 32.8075V14.524H178.675V14.0284H172.886V9.5676H172.503C172.448 9.8929 172.374 10.2104 172.279 10.5165C171.809 12.0245 170.824 13.2588 169.008 13.8081C168.644 13.8813 168.257 13.9302 167.878 13.9547C167.687 13.9671 167.497 13.9733 167.314 13.9733H166.714V14.524H167.041C167.135 14.524 167.226 14.5254 167.314 14.5282C167.509 14.5343 167.691 14.5475 167.859 14.5689C168.906 14.7018 169.445 15.1496 169.445 16.1761C169.445 19.2601 169.458 22.3441 169.472 25.428C169.486 28.512 169.499 31.5959 169.499 34.6799V34.7901C169.499 36.7726 170.865 38.3146 172.886 38.9754C173.65 39.2508 174.524 39.3609 175.507 39.3609C176.485 39.3416 177.368 39.1731 178.136 38.891C179.556 38.3694 180.582 37.4594 181.078 36.3871L180.696 36.0567C180.679 36.099 180.662 36.1409 180.643 36.1824C180.576 36.3337 180.5 36.4793 180.414 36.6185C179.879 37.4832 178.992 38.0996 177.974 38.2997C177.741 38.3456 177.5 38.3697 177.255 38.3697H177.146ZM102.972 3.1794C102.972 4.9576 101.49 6.37959 99.7978 6.37959C98.0425 6.37959 96.6238 4.9492 96.6238 3.1794C96.6238 1.45619 98.051 0.0342548 99.7978 0.0342548C101.481 0.0342548 102.972 1.44786 102.972 3.1794ZM102.365 3.1794C102.365 4.6113 101.163 5.7677 99.7978 5.7677C98.3777 5.7677 97.2307 4.6113 97.2307 3.1794C97.2307 1.80265 98.3777 0.646155 99.7978 0.646155C101.163 0.646155 102.365 1.80265 102.365 3.1794Z" fill="white"/>
<path d="M20.7544 40.3575C32.6065 40.1923 39.8162 31.0505 39.8162 21.3581V20.5871C39.3792 9.2425 33.0435 1.03695 20.7544 0.816662H20.4267C9.06606 0.816662 1.47412 9.1874 1.4195 20.5871L1.41357 20.7869C1.41357 32.517 9.38785 40.3922 20.2569 40.3922L20.7544 40.3575ZM9.12068 5.8832C11.5239 2.90935 14.8556 1.42244 19.1158 1.42244C22.4475 1.42244 25.3423 2.30357 27.8001 4.0108C30.258 5.718 32.1696 8.1411 33.5351 11.225C34.9005 14.309 35.6106 17.8335 35.6106 21.7986C35.6106 25.5434 34.9551 28.7376 33.7535 31.436C32.4973 34.1345 30.8588 36.1721 28.7286 37.604C26.5985 38.9807 25.8098 38.647 23.1335 38.647C21.1853 38.647 15.3042 39.3278 14.0463 39.4548L13.8184 39.3805L13.7655 39.097C13.7655 39.097 12.9595 37.1695 12.6869 36.8466C10.2291 34.9742 8.90221 32.4273 7.53675 29.1231C6.17129 25.8739 5.51587 22.2392 5.51587 18.2741C5.51587 13.0424 6.71748 8.9121 9.12068 5.8832ZM65.7688 35.4011C65.7142 37.1634 64.8403 38.9807 62.874 38.9807V39.4213H72.0499V38.9807H71.9953C70.1383 38.9257 69.2644 37.2735 69.2098 35.5663V20.7523C68.882 16.4568 65.7142 14.0337 62.2186 14.0337H61.7817C59.9246 14.0887 58.1222 14.8597 56.5929 16.1263C55.3367 17.1176 54.1351 18.219 53.2612 19.9262V14.0337H52.7697C51.4042 15.0249 48.6187 15.1901 46.9255 15.1901V15.6307C48.7825 15.6858 49.8203 16.6771 49.8203 18.5495V35.4011C49.7656 37.1634 48.8918 38.9807 46.9255 38.9807V39.4213H56.1014V38.9807C54.2443 38.9807 53.3158 37.2735 53.2612 35.5663V20.4769C54.3536 18.7697 55.8283 17.1176 57.6853 16.2365C58.8869 15.7408 60.1431 15.4104 61.2901 15.4104C62.3279 15.4104 63.2564 15.6858 64.021 16.1814C65.6049 17.2828 65.7688 19.5407 65.7688 21.5233V35.4011ZM88.3262 38.8155C86.4691 38.8155 85.5406 37.1083 85.486 35.4011V-3.14844H84.9944C84.339 -2.70787 83.3559 -2.37745 82.0451 -2.15716C81.1712 -2.04702 80.2427 -1.99195 79.1503 -1.99195V-1.49631C80.9527 -1.49631 81.9904 -0.560108 82.0451 1.25723V35.2359C81.9904 36.9982 81.1165 38.8155 79.1503 38.8155V39.2561H88.3262V38.8155ZM99.7964 5.773C101.162 5.773 102.363 4.6165 102.363 3.1847C102.363 1.80794 101.162 0.651453 99.7964 0.651453C98.3764 0.651453 97.2294 1.80794 97.2294 3.1847C97.2294 4.6165 98.3764 5.773 99.7964 5.773ZM98.2671 35.2359C98.2671 36.9982 97.3386 38.8155 95.427 38.8155V39.2561H104.603V38.8155C102.691 38.8155 101.817 37.1083 101.708 35.4011V13.8134H101.271C100.616 14.2539 99.6326 14.5844 98.2671 14.8046C97.4478 14.9148 96.4647 14.9699 95.427 14.9699V15.4655C97.1748 15.4655 98.2671 16.4017 98.2671 18.219V35.2359ZM118.039 24.2768C119.787 23.616 122.245 23.616 124.648 23.616H126.888C130.165 23.616 132.95 23.5058 133.387 22.2943C133.551 21.8537 133.606 21.4682 133.606 21.0276C133.606 19.1552 132.131 17.393 130.765 16.2916C128.745 14.5293 126.177 13.7583 123.447 13.7032H123.228C116.346 13.7032 111.704 19.1552 111.704 26.6449V26.755C111.704 34.4649 116.619 39.6416 123.228 39.6416H123.447C130.001 39.4764 134.206 34.6301 134.971 29.0129H134.479C133.442 34.8504 129.509 37.1083 125.304 37.4387C124.976 37.4938 124.594 37.4938 124.266 37.4938C119.623 37.4938 116.729 34.5751 115.472 29.839C115.308 29.1781 115.199 28.5723 115.199 28.0216C115.199 26.0942 116.346 24.9377 118.039 24.2768ZM114.817 27.9666C114.653 27.0304 114.435 24.6072 114.435 23.616C114.598 17.0075 119.077 14.309 123.173 14.309C125.959 14.309 128.581 15.4655 129.673 17.5582C130.11 18.164 130.383 19.2103 130.383 20.0914C130.219 24.7725 122.463 22.2943 117.93 23.8913C116.346 24.442 114.926 25.5985 114.817 27.9666ZM154.174 25.5985C150.952 23.4508 147.347 21.5784 147.128 18.4944V17.9437C147.128 15.851 148.221 14.0337 150.897 13.9786H151.006C155.266 13.9786 157.833 17.1176 158.052 20.6972H158.544V13.4829H158.052C157.997 14.309 157.724 14.7496 157.014 14.7496C156.741 14.7496 156.413 14.6945 156.031 14.5293C154.72 13.9235 152.809 13.538 150.842 13.538C147.074 13.538 143.414 14.6394 143.305 18.4944V18.6596C143.305 23.1754 147.565 25.158 151.17 27.4709C153.792 29.2332 156.195 31.1056 156.195 34.4098V34.52C156.14 37.5489 154.174 39.0358 150.952 39.0909H150.515C145.053 39.0909 143.25 36.0069 143.087 31.1607H142.595V39.6416H143.087C143.196 38.6503 143.469 38.2097 144.07 38.1547C144.507 38.1547 145.763 38.7604 147.401 39.201C148.33 39.4213 149.368 39.5865 150.515 39.5865H151.006C156.304 39.4764 159.144 37.0532 159.581 34.0244C159.636 33.6939 159.636 33.3635 159.636 33.0331C159.636 29.6738 157.014 27.526 154.174 25.5985ZM180.695 36.062C180.148 37.4387 178.783 38.3749 177.254 38.3749H177.144C173.485 38.2097 172.993 36.0069 172.884 32.8128V14.5293H178.674V14.0337H172.884V9.5729H172.502C172.174 11.5004 171.191 13.1525 169.006 13.8134C168.46 13.9235 167.859 13.9786 167.313 13.9786H166.712V14.5293H167.04C168.624 14.5293 169.443 14.9148 169.443 16.1814C169.443 22.3493 169.498 28.5173 169.498 34.6852V34.7953C169.498 36.7779 170.863 38.3199 172.884 38.9807C173.649 39.2561 174.523 39.3662 175.506 39.3662C178.291 39.3111 180.312 38.0445 181.077 36.3924L180.695 36.062Z" fill="white"/>
</g>
</g>
<defs>
<clipPath id="clip0_26203_144649">
<rect width="167" height="41" fill="white"/>
</clipPath>
</defs>
</svg>
