<svg width="32" height="32" viewBox="0 0 32 32" fill="none" xmlns="http://www.w3.org/2000/svg">
<path d="M16 1C24.2843 1 31 7.71573 31 16C31 24.2843 24.2843 31 16 31C7.71573 31 1 24.2843 1 16C1 7.71573 7.71573 1 16 1Z" fill="#14B8A6"/>
<path d="M16 1C24.2843 1 31 7.71573 31 16C31 24.2843 24.2843 31 16 31C7.71573 31 1 24.2843 1 16C1 7.71573 7.71573 1 16 1Z" stroke="white" stroke-width="2"/>
<path d="M9.20898 13.1846C9.08735 12.6367 9.10603 12.0669 9.26328 11.5282C9.42053 10.9894 9.71127 10.4991 10.1085 10.1027C10.5058 9.70622 10.9967 9.41651 11.5358 9.26038C12.0749 9.10426 12.6447 9.08677 13.1923 9.20955C13.4937 8.73814 13.909 8.35019 14.3998 8.08146C14.8906 7.81273 15.4411 7.67187 16.0006 7.67188C16.5602 7.67188 17.1107 7.81273 17.6015 8.08146C18.0923 8.35019 18.5076 8.73814 18.809 9.20955C19.3575 9.08624 19.9282 9.10364 20.4681 9.26015C21.0081 9.41665 21.4997 9.70717 21.8972 10.1047C22.2947 10.5022 22.5852 10.9938 22.7417 11.5337C22.8982 12.0737 22.9156 12.6444 22.7923 13.1929C23.2637 13.4943 23.6517 13.9096 23.9204 14.4003C24.1891 14.8911 24.33 15.4417 24.33 16.0012C24.33 16.5608 24.1891 17.1113 23.9204 17.6021C23.6517 18.0929 23.2637 18.5081 22.7923 18.8096C22.9151 19.3572 22.8976 19.927 22.7415 20.466C22.5854 21.0051 22.2957 21.4961 21.8992 21.8933C21.5028 22.2906 21.0125 22.5813 20.4737 22.7386C19.9349 22.8958 19.3652 22.9145 18.8173 22.7929C18.5163 23.2661 18.1007 23.6557 17.6091 23.9257C17.1175 24.1956 16.5657 24.3371 16.0048 24.3371C15.444 24.3371 14.8922 24.1956 14.4005 23.9257C13.9089 23.6557 13.4933 23.2661 13.1923 22.7929C12.6447 22.9157 12.0749 22.8982 11.5358 22.7421C10.9967 22.5859 10.5058 22.2962 10.1085 21.8998C9.71127 21.5034 9.42053 21.013 9.26328 20.4743C9.10603 19.9355 9.08735 19.3658 9.20898 18.8179C8.73395 18.5173 8.34266 18.1014 8.07152 17.6089C7.80038 17.1164 7.6582 16.5634 7.6582 16.0012C7.6582 15.439 7.80038 14.886 8.07152 14.3935C8.34266 13.9011 8.73395 13.4852 9.20898 13.1846Z" fill="white" stroke="white" stroke-width="0.5" stroke-linecap="round" stroke-linejoin="round"/>
<path d="M13.5 15.9948L15.1667 17.6615L18.5 14.3281" fill="white"/>
<path d="M13.5 15.9948L15.1667 17.6615L18.5 14.3281" stroke="#14B8A6" stroke-width="1.33333" stroke-linecap="round" stroke-linejoin="round"/>
</svg>
